<svg width="375" height="564" viewBox="0 0 375 564" fill="none" xmlns="http://www.w3.org/2000/svg">
<path d="M325.665 560.595C363.768 556.425 401.116 546.996 425.197 530.823C450.742 513.662 458.742 490.717 456.694 468.903C454.646 447.09 443.483 425.842 434.38 404.535C405.606 337.182 397.076 267.417 409.196 198.659C416.161 159.136 429.53 117.969 403.603 80.7275C373.355 37.2792 287.158 6.61993 199.745 8.21633L92.1104 4.74356C59.4769 -5.06716 16.3557 1.37205 -11.5966 14.6258C-39.549 27.8795 -55.7645 46.5299 -71.2372 64.6265C-91.5038 88.3461 -111.962 112.376 -120.401 138.025C-135.188 182.981 -111.917 228.859 -84.707 272.159C-57.4974 315.458 -25.7529 358.942 -23.0296 404.553C-21.7468 425.973 -26.9457 447.399 -25.5953 468.82C-24.245 490.24 -15.5239 512.447 9.88517 529.137C32.5711 544.035 66.6113 553.137 101.687 557.777C136.762 562.424 173.222 563.007 209.366 563.573C248.256 564.181 287.563 564.765 325.654 560.601L325.665 560.595Z" fill="#FCF9F3"/>
</svg>
