<svg width="1140" height="183" viewBox="0 0 1140 183" fill="none" xmlns="http://www.w3.org/2000/svg">
<rect width="1137" height="183" rx="29" fill="#F4F6F7"/>
<g clip-path="url(#clip0_965_14774)">
<path d="M541.585 71.1968H532.802C532.301 71.1968 531.897 71.6022 531.897 72.1028V90.0348C531.901 99.3156 524.389 106.843 515.119 106.847C515.1 106.847 515.082 106.847 515.063 106.847H502.795C502.557 106.848 502.329 106.942 502.16 107.11C501.992 107.278 501.896 107.507 501.897 107.746V116.525C501.896 116.763 501.991 116.993 502.16 117.161C502.33 117.327 502.558 117.422 502.795 117.424H515.072C519.062 117.478 523.025 116.754 526.741 115.294V106.93H537.449C540.639 102.491 542.427 96.7817 542.427 90.0553V72.1233C542.433 72.0056 542.414 71.8878 542.372 71.7773C542.331 71.6657 542.268 71.5643 542.186 71.4804C542.107 71.3933 542.011 71.3248 541.903 71.2797C541.802 71.2347 541.695 71.207 541.585 71.1968Z" fill="url(#paint0_radial_965_14774)"/>
<path d="M541.585 70.0146H532.802C531.817 70.0218 531.022 70.8194 531.013 71.8053V89.7373C531.013 98.5184 523.903 105.637 515.132 105.637C515.118 105.637 515.105 105.637 515.09 105.637H502.823C502.587 105.633 502.353 105.676 502.133 105.762C501.912 105.854 501.711 105.988 501.539 106.156C501.37 106.321 501.236 106.518 501.145 106.737C501.048 106.954 500.999 107.19 501 107.428V116.221C501 116.695 501.185 117.15 501.517 117.486C501.853 117.817 502.303 118.006 502.774 118.012H515.051C519.043 118.059 523.007 117.355 526.74 115.937V114.001C523.039 115.552 519.061 116.33 515.051 116.29L502.76 116.255V107.42H515.064C524.822 107.428 532.742 99.5207 532.76 89.7516L532.802 71.7787H541.585V89.7516C541.585 96.5886 539.59 102.45 536.061 106.916H538.326C541.55 102.319 543.359 96.4493 543.366 89.7516V71.7715C543.358 71.3057 543.167 70.8603 542.835 70.5337C542.501 70.2041 542.053 70.0187 541.585 70.0157V70.0146Z" fill="#152B51"/>
<path d="M588.253 57.4954L594.591 54.7649C594.213 53.9929 593.922 53.1821 593.721 52.3456C593.107 49.394 594.971 46.7741 597.974 46.1239C600.694 45.5568 602.807 46.988 603.298 49.3592C603.885 52.1245 602.304 54.1014 599.7 55.2491L589.253 59.7631C589.032 59.8573 588.784 59.8573 588.563 59.7631C588.344 59.6812 588.167 59.5143 588.073 59.3003L587.783 58.6645C587.734 58.556 587.708 58.4383 587.707 58.3185C587.701 58.2008 587.72 58.083 587.762 57.9725C587.805 57.865 587.869 57.7656 587.949 57.6817C588.035 57.5988 588.139 57.5353 588.252 57.4954H588.253ZM598.907 52.9261C600.045 52.5156 600.737 51.3597 600.563 50.1608C600.53 49.913 600.44 49.6776 600.301 49.4697C600.17 49.2558 599.99 49.0756 599.776 48.9445C599.565 48.8125 599.331 48.7254 599.086 48.6886C598.837 48.6589 598.586 48.6824 598.347 48.7582C598.02 48.8053 597.706 48.923 597.429 49.1042C597.154 49.2844 596.919 49.5199 596.739 49.7953C596.375 50.3584 596.265 51.0484 596.435 51.6965C596.609 52.3835 596.888 53.0387 597.263 53.6387L598.907 52.9271V52.9261Z" fill="#176AB2"/>
<path d="M537.684 126.831H536.49C536.429 126.831 536.368 126.85 536.317 126.886C536.264 126.919 536.224 126.971 536.207 127.031L533.776 133.067L531.159 127.011C531.138 126.956 531.099 126.91 531.049 126.88C530.999 126.844 530.938 126.825 530.876 126.825H529.667C529.628 126.814 529.589 126.814 529.55 126.825C529.512 126.839 529.476 126.859 529.446 126.887C529.418 126.917 529.396 126.952 529.384 126.99C529.371 127.028 529.371 127.07 529.384 127.108V136.572C529.383 136.655 529.415 136.735 529.474 136.793C529.531 136.854 529.612 136.887 529.695 136.883H530.689C530.77 136.884 530.847 136.852 530.903 136.793C530.964 136.739 531 136.661 531 136.579V131.146L532.774 135.293C532.796 135.35 532.835 135.397 532.884 135.432C532.935 135.465 532.996 135.482 533.057 135.48H534.286C534.348 135.479 534.408 135.459 534.459 135.425C534.51 135.39 534.549 135.339 534.57 135.279L536.275 131.042V136.572C536.271 136.74 536.404 136.879 536.572 136.883C536.577 136.883 536.581 136.883 536.586 136.883H537.67C537.753 136.884 537.833 136.853 537.891 136.793C537.947 136.736 537.979 136.659 537.981 136.579V127.137C537.978 127.057 537.946 126.981 537.891 126.923C537.837 126.867 537.762 126.835 537.683 126.833L537.684 126.831Z" fill="#152B51"/>
<path d="M554.787 126.893H553.655C553.616 126.883 553.576 126.883 553.537 126.893C553.499 126.908 553.463 126.932 553.434 126.963C553.408 126.99 553.386 127.023 553.372 127.06C553.363 127.101 553.363 127.144 553.372 127.185V132.515C553.429 133.195 553.355 133.88 553.158 134.534C553.038 134.8 552.825 135.012 552.558 135.128C551.893 135.398 551.151 135.398 550.486 135.128C550.2 135.021 549.956 134.822 549.796 134.561C549.6 134.041 549.528 133.483 549.582 132.93V127.165C549.581 127.083 549.545 127.007 549.485 126.951C549.431 126.891 549.352 126.858 549.271 126.861H548.007C547.968 126.851 547.928 126.851 547.89 126.861C547.849 126.873 547.813 126.897 547.786 126.931C547.76 126.958 547.738 126.991 547.724 127.028C547.718 127.067 547.718 127.107 547.724 127.146V133.119C547.663 133.94 547.82 134.763 548.18 135.503C548.506 136.009 548.993 136.391 549.56 136.588C550.186 136.815 550.849 136.927 551.515 136.92C552.189 136.941 552.856 136.795 553.462 136.498C553.974 136.233 554.398 135.825 554.684 135.323C555.022 134.54 555.167 133.686 555.105 132.834V127.18C555.098 127.015 554.96 126.886 554.794 126.889L554.787 126.896V126.893Z" fill="#152B51"/>
<path d="M570.668 127.432C569.753 127.001 568.743 126.808 567.733 126.872H565.144C564.976 126.868 564.837 127.001 564.833 127.169C564.833 127.174 564.833 127.178 564.833 127.183V136.605C564.833 136.688 564.866 136.767 564.923 136.826C564.981 136.886 565.061 136.92 565.144 136.923H567.906C568.906 136.979 569.9 136.738 570.764 136.232C571.41 135.784 571.916 135.16 572.221 134.435C572.898 132.728 572.898 130.826 572.221 129.119C571.89 128.409 571.347 127.821 570.668 127.432ZM570.793 131.96C570.813 132.616 570.703 133.269 570.469 133.882C570.302 134.319 569.993 134.686 569.591 134.926C569.027 135.182 568.408 135.299 567.789 135.265H566.691V128.442H567.795C568.445 128.396 569.095 128.523 569.68 128.809C570.08 129.084 570.377 129.485 570.523 129.949C570.729 130.599 570.826 131.279 570.813 131.961H570.793V131.96Z" fill="#152B51"/>
<path d="M587.239 127.1C587.219 127.041 587.18 126.99 587.129 126.955C587.078 126.92 587.018 126.898 586.956 126.892H585.713C585.652 126.893 585.592 126.913 585.541 126.947C585.489 126.982 585.451 127.033 585.43 127.093L581.556 136.508C581.546 136.558 581.546 136.61 581.556 136.66C581.565 136.709 581.583 136.756 581.612 136.798C581.666 136.886 581.763 136.94 581.867 136.937H583.014C583.073 136.936 583.131 136.916 583.179 136.881C583.23 136.849 583.269 136.8 583.29 136.743L584.291 134.337H587.999L588.897 136.736C588.919 136.794 588.957 136.845 589.007 136.881C589.06 136.916 589.123 136.936 589.187 136.937H590.512C590.563 136.937 590.613 136.925 590.658 136.902C590.701 136.875 590.738 136.839 590.768 136.798C590.797 136.756 590.815 136.709 590.823 136.66C590.837 136.61 590.837 136.558 590.823 136.508L587.24 127.099L587.239 127.1ZM587.398 132.789H584.878L586.19 129.574L587.399 132.789H587.398Z" fill="#152B51"/>
<path d="M607.331 129.215C607.021 128.505 606.501 127.906 605.84 127.5C604.925 127.07 603.915 126.88 602.905 126.947H600.288C600.208 126.944 600.129 126.977 600.075 127.037C600.013 127.092 599.978 127.17 599.978 127.251V136.681C599.982 136.764 600.016 136.842 600.075 136.902C600.134 136.959 600.213 136.992 600.296 136.992H603.058C604.058 137.046 605.052 136.807 605.916 136.301C606.564 135.853 607.072 135.23 607.379 134.503C607.713 133.682 607.881 132.804 607.876 131.918C607.892 130.988 607.706 130.066 607.331 129.215ZM605.66 130.024C605.873 130.666 605.973 131.34 605.957 132.015C605.977 132.671 605.867 133.325 605.633 133.937C605.466 134.374 605.157 134.742 604.755 134.981C604.191 135.239 603.572 135.353 602.953 135.313H601.807V128.496H602.911C603.559 128.446 604.208 128.573 604.79 128.863C605.199 129.132 605.502 129.536 605.646 130.003L605.659 130.024H605.66Z" fill="#152B51"/>
<path d="M627.403 71.3691C622.177 66.7927 615.907 65.2099 609.03 65.9706C603.678 66.505 598.662 68.8311 594.792 72.5721C586.393 80.8608 584.069 93.5243 588.979 104.26C589.111 104.6 589.354 104.885 589.669 105.069C589.978 105.254 590.34 105.332 590.698 105.29H602.643C602.898 105.31 603.154 105.31 603.409 105.29C603.565 105.284 603.718 105.236 603.851 105.152C603.982 105.064 604.087 104.942 604.154 104.799C604.285 104.507 604.243 104.166 604.044 103.915C603.815 103.63 603.563 103.364 603.291 103.12C597.393 97.0779 597.504 87.3927 603.54 81.4874C603.614 81.4137 603.691 81.341 603.768 81.2693C608.601 76.6724 616.3 77.5017 620.249 81.2693C623.248 84.053 624.885 88.009 624.73 92.1012C624.592 98.4744 619.572 106.618 609.74 106.66H587.307C585.367 106.66 583.42 106.75 581.501 106.577C575.459 106.037 569.818 100.991 568.693 95.0252C568.28 92.7667 568.071 90.4764 568.065 88.181C568.065 83.1971 568.12 78.2133 568.217 73.2632C568.252 71.4725 567.748 70.5327 565.552 70.6432C563.695 70.7262 561.831 70.6432 559.959 70.6432H557.446C556.552 70.6115 555.796 71.2985 555.74 72.1912C555.725 72.4216 555.725 72.6519 555.74 72.8823C555.74 77.7208 555.788 82.5603 555.74 87.3988C555.773 89.339 555.707 91.2791 555.547 93.212C555.082 98.3311 551.976 102.834 547.358 105.081C545.41 105.983 543.29 106.455 541.144 106.463H527.023C526.792 106.463 526.569 106.552 526.402 106.712C526.237 106.876 526.141 107.095 526.133 107.327V117.904C526.133 118.39 526.524 118.786 527.01 118.789H541.116C543.017 118.752 544.912 118.57 546.784 118.243L547.108 118.188L547.392 118.146C549.072 117.798 550.697 117.226 552.225 116.445C553.75 115.728 555.206 114.869 556.575 113.881C558.209 112.687 559.715 111.327 561.07 109.823L561.995 108.828C562.126 109.049 562.272 109.257 562.424 109.464C564.176 111.434 566.185 113.159 568.397 114.593C572.181 117.116 576.296 118.796 580.874 118.844C590.63 118.947 600.386 119.01 610.136 118.892C617.399 118.92 624.346 115.913 629.303 110.597C633.716 106.124 636.406 100.232 636.898 93.9655C637.658 84.8127 634.178 77.2918 627.404 71.3681L627.403 71.3691ZM635.316 92.9509C635.178 95.7705 634.523 98.5399 633.382 101.122C631.674 105.35 628.9 109.064 625.331 111.899C621.084 115.27 615.824 117.107 610.403 117.111C601.123 117.186 591.837 117.111 582.557 117.111C578.183 117.166 573.891 115.927 570.218 113.551C567.417 111.882 564.93 109.734 562.872 107.205C562.182 106.307 561.685 106.334 560.973 107.254C559.031 109.782 556.644 111.935 553.93 113.606C552.926 114.224 551.879 114.767 550.796 115.231C547.726 116.472 544.439 117.087 541.129 117.042H527.879V108.187H541.102C543.229 108.187 545.337 107.787 547.316 107.005C552.392 104.781 556.053 100.202 557.106 94.7549C557.311 93.64 557.413 92.5087 557.41 91.3743C557.41 85.3942 557.41 79.4572 557.458 73.4904C557.458 73.1311 557.458 72.7994 557.513 72.3428H566.441V91.2217C566.438 92.6121 566.553 93.9993 566.786 95.3692C567.477 99.1091 569.604 101.985 572.421 104.397C575.357 106.997 579.156 108.407 583.074 108.351C591.913 108.281 600.757 108.316 609.602 108.351C616.469 108.509 622.693 104.332 625.158 97.9123C627.644 91.6906 626.538 85.9532 622.306 80.8997C616.996 74.4712 606.639 74.7333 601.226 81.2662C596.568 86.8102 595.874 94.6802 599.492 100.954C599.989 101.77 600.486 102.572 601.038 103.539C597.496 103.629 594.071 103.539 590.592 103.539C590.267 102.703 589.901 101.908 589.631 101.085C586.282 91.4695 588.989 80.3469 596.315 73.5519C599.942 70.245 604.548 68.2127 609.434 67.7663C612.307 67.4346 615.216 67.6343 618.017 68.354C621.733 69.2652 625.116 71.2114 627.773 73.9675C632.862 79.277 635.589 85.5468 635.368 92.9847L635.313 92.9499L635.316 92.9509Z" fill="#152B51"/>
<path d="M596.974 111.747H612.206C617.081 111.871 621.731 109.692 624.758 105.864C628.411 101.385 630.316 96.2412 629.929 90.4208C629.432 82.817 624.344 75.5101 616.624 73.3878C615.344 73.1042 614.048 72.8963 612.744 72.7653C612.53 72.7653 612.302 72.7653 612.053 72.7305C611.592 72.7008 611.239 72.3076 611.26 71.8459C611.26 71.7343 611.281 71.6248 611.322 71.5214C611.365 71.419 611.428 71.3279 611.508 71.2521C611.586 71.1753 611.681 71.119 611.784 71.0862C611.888 71.0463 611.998 71.0299 612.108 71.0381C612.983 71.0146 613.858 71.0617 614.725 71.1763C621.312 72.2063 626.008 75.891 629.156 81.6355C630.913 84.6722 631.817 88.1285 631.773 91.6381C631.58 98.5099 629.184 104.503 624.005 109.169C620.847 112.03 616.734 113.606 612.475 113.586C604.009 113.656 595.6 113.586 587.155 113.586C585.083 113.586 583.012 113.586 580.941 113.531C578.224 113.455 575.574 112.669 573.256 111.25C566.786 107.4 562.947 101.78 561.863 94.3072C561.724 92.9619 561.678 91.6084 561.725 90.256V75.85C561.787 75.249 562.098 74.8549 562.546 74.8549C563.064 74.8948 563.462 75.3299 563.457 75.85V76.7284C563.457 81.7123 563.299 86.7515 563.499 91.7569C563.83 100.26 567.904 106.502 575.492 110.373C577.422 111.328 579.554 111.802 581.707 111.755C586.809 111.734 591.883 111.748 596.973 111.748L596.974 111.747Z" fill="#152B51"/>
<path d="M594.641 96.0681C594.641 96.5657 594.482 96.8902 594.013 97.0018C593.905 97.0356 593.794 97.05 593.681 97.0438C593.572 97.0305 593.467 96.9947 593.371 96.9404C593.272 96.8862 593.188 96.8104 593.122 96.7193C593.059 96.6302 593.015 96.5288 592.991 96.4224C592.77 95.3904 592.605 94.3471 592.494 93.2977C592.492 93.0899 592.566 92.8882 592.702 92.7305C592.984 92.405 593.467 92.3456 593.821 92.5923C593.99 92.7111 594.111 92.8882 594.159 93.0899C594.332 94.085 594.477 95.0945 594.643 96.0692L594.641 96.0681Z" fill="#152B51"/>
<path d="M594.744 98.1151C594.841 98.1703 595.117 98.2185 595.193 98.371C595.475 98.9075 595.684 99.4798 595.815 100.072C595.85 100.293 595.469 100.707 595.2 100.825C595.053 100.863 594.898 100.863 594.751 100.825C594.605 100.782 594.472 100.704 594.365 100.597C594.076 100.1 593.873 99.5576 593.764 98.9935C593.674 98.4683 594.123 98.0946 594.745 98.1151H594.744Z" fill="#152B51"/>
<path d="M608.305 71.9638C608.279 71.8553 608.235 71.7519 608.174 71.6597C608.11 71.5748 608.03 71.5021 607.939 71.4458C607.845 71.3853 607.738 71.3475 607.628 71.3352C607.521 71.3147 607.41 71.3147 607.304 71.3352C606.445 71.5 605.6 71.7314 604.777 72.0263C598.563 74.4875 594.827 79.1253 593.039 85.4371C592.915 85.8517 592.811 86.2735 592.715 86.7025H592.771C592.612 87.4908 592.494 88.2853 592.412 89.0808V89.4125C592.349 90.4077 592.543 90.7947 593.102 90.9052C593.661 91.0158 594.062 90.5735 594.123 89.5231C594.219 87.9986 594.511 86.4926 594.994 85.0439C596.36 80.5924 599.403 76.8494 603.479 74.6052C604.662 74.0431 605.88 73.5558 607.125 73.1463C607.325 73.0634 607.559 73.049 607.753 72.9661C607.86 72.9313 607.961 72.877 608.049 72.8074C608.135 72.7327 608.208 72.6446 608.263 72.5443C608.313 72.444 608.346 72.3365 608.36 72.2259C608.353 72.1368 608.335 72.0477 608.305 71.9628V71.9638Z" fill="#152B51"/>
</g>
<mask id="mask0_965_14774" style="mask-type:alpha" maskUnits="userSpaceOnUse" x="3" y="0" width="1137" height="183">
<rect x="3" width="1137" height="183" rx="29" fill="#F4F6F7"/>
</mask>
<g mask="url(#mask0_965_14774)">
<path d="M734.3 -104.748C677.669 -147.186 609.736 -161.864 535.221 -154.81C477.227 -149.854 422.879 -128.284 380.951 -93.5931C289.938 -16.73 264.763 100.701 317.96 200.254C319.389 203.406 322.026 206.055 325.439 207.755C328.785 209.473 332.707 210.195 336.585 209.805H466.014C468.773 209.995 471.554 209.995 474.313 209.805C476.008 209.748 477.659 209.302 479.1 208.524C480.518 207.707 481.659 206.577 482.391 205.258C483.809 202.542 483.355 199.381 481.194 197.055C478.712 194.416 475.986 191.947 473.039 189.688C409.128 133.654 410.336 43.8414 475.731 -10.9197C476.54 -11.6033 477.371 -12.2773 478.202 -12.9419C530.568 -55.5698 613.991 -47.8797 656.783 -12.9419C689.281 12.8721 707.01 49.5568 705.336 87.5041C703.841 146.604 649.448 222.119 542.911 222.508H299.843C278.824 222.508 257.727 223.344 236.93 221.739C171.467 216.736 110.349 169.94 98.1494 114.619C93.684 93.6752 91.4125 72.4372 91.3461 51.1518C91.3461 4.93521 91.9444 -41.2814 92.997 -87.1846C93.3737 -103.79 87.9112 -112.505 64.1219 -111.48C44.0001 -110.711 23.8008 -111.48 3.5239 -111.48H-23.7114C-33.3955 -111.774 -41.5838 -105.404 -42.1933 -97.1248C-42.3595 -94.9887 -42.3595 -92.8525 -42.1933 -90.7164C-42.1933 -45.848 -41.6725 -0.970047 -42.1933 43.8984C-41.8387 61.8894 -42.5479 79.8805 -44.2874 97.8051C-49.3289 145.275 -82.9797 187.029 -133.018 207.868C-154.126 216.233 -177.095 220.609 -200.353 220.685H-353.349C-355.853 220.685 -358.269 221.511 -360.086 222.992C-361.87 224.511 -362.911 226.543 -363 228.698V326.78C-363 331.29 -358.756 334.955 -353.493 334.983H-200.652C-180.054 334.641 -159.522 332.951 -139.234 329.923L-135.722 329.41L-132.652 329.021C-114.448 325.793 -96.8411 320.495 -80.2871 313.251C-63.7554 306.596 -47.9771 298.631 -33.1517 289.469C-15.4455 278.399 0.875702 265.791 15.557 251.845L25.5847 242.616C27.003 244.667 28.5764 246.594 30.2273 248.512C49.2078 266.779 70.9805 282.776 94.9471 296.077C135.944 319.47 180.531 335.05 230.137 335.496C335.854 336.455 441.56 337.034 547.199 335.942C625.902 336.198 701.17 308.315 754.887 259.022C802.699 217.543 831.851 162.905 837.18 104.793C845.413 19.9167 807.707 -49.8259 734.311 -104.758L734.3 -104.748ZM820.039 95.3841C818.543 121.53 811.441 147.212 799.087 171.155C780.572 210.365 750.522 244.8 711.852 271.089C665.824 302.352 608.839 319.385 550.102 319.422C449.549 320.125 348.929 319.422 248.375 319.422C200.985 319.935 154.481 308.447 114.681 286.412C84.3322 270.937 57.385 251.019 35.0805 227.568C27.6013 219.233 22.2163 219.489 14.5044 228.015C-6.53699 251.465 -32.3983 271.431 -61.8053 286.925C-72.6862 292.65 -84.0323 297.691 -95.7663 301.992C-129.029 313.498 -164.641 319.204 -200.508 318.786H-344.075V236.673H-200.807C-177.76 236.673 -154.913 232.961 -133.472 225.708C-78.47 205.087 -38.8027 162.62 -27.39 112.112C-25.174 101.774 -24.0659 91.2827 -24.0992 80.7634C-24.0992 25.3092 -24.0992 -29.7462 -23.5784 -85.077C-23.5784 -88.4094 -23.5784 -91.4854 -22.9801 -95.7197H73.7506V79.3488C73.7173 92.2416 74.9694 105.106 77.4957 117.809C84.9749 152.49 108.022 179.159 138.548 201.527C170.359 225.632 211.523 238.714 253.982 238.192C349.749 237.547 445.582 237.869 541.415 238.192C615.819 239.654 683.265 200.919 709.968 141.392C736.904 83.697 724.926 30.4929 679.065 -16.3692C621.536 -75.9818 509.316 -73.5513 450.657 -12.9704C400.186 38.4394 392.674 111.419 431.876 169.598C437.261 177.165 442.646 184.599 448.629 193.571C410.247 194.406 373.139 193.571 335.433 193.571C331.921 185.814 327.954 178.447 325.029 170.814C288.741 81.6463 318.07 -21.496 397.449 -84.5074C436.751 -115.173 486.656 -134.018 539.598 -138.158C570.722 -141.234 602.246 -139.382 632.595 -132.708C672.86 -124.259 709.514 -106.211 738.311 -80.6528C793.447 -31.4171 822.998 26.7238 820.604 95.6974L820.006 95.3746L820.039 95.3841Z" fill="#152B51"/>
<path d="M404.597 269.683H569.637C622.468 270.832 672.85 250.629 705.647 215.131C745.226 173.595 765.869 125.897 761.68 71.9242C756.295 1.41258 701.16 -66.3458 617.515 -86.0268C603.642 -88.6566 589.604 -90.5839 575.465 -91.7991C573.15 -91.7991 570.679 -91.7991 567.986 -92.1219C562.989 -92.3972 559.166 -96.0429 559.388 -100.325C559.388 -101.36 559.621 -102.375 560.064 -103.334C560.529 -104.284 561.216 -105.129 562.08 -105.831C562.923 -106.543 563.953 -107.065 565.072 -107.369C566.191 -107.739 567.388 -107.891 568.585 -107.815C578.058 -108.034 587.543 -107.597 596.939 -106.534C668.307 -96.9828 719.187 -62.814 753.304 -9.54343C772.339 18.6156 782.134 50.6672 781.658 83.2125C779.564 146.936 753.603 202.514 697.492 245.778C663.265 272.313 618.701 286.924 572.551 286.744C480.829 287.39 389.705 286.744 298.204 286.744C275.755 286.744 253.318 286.744 230.869 286.231C201.429 285.529 172.72 278.237 147.601 265.079C77.4963 229.372 35.9009 177.26 24.1558 107.963C22.6489 95.4882 22.1503 82.9372 22.66 70.3957V-63.1938C23.3359 -68.7667 26.7043 -72.4219 31.5575 -72.4219C37.1751 -72.0517 41.4854 -68.0167 41.43 -63.1938V-55.048C41.43 -8.83138 39.7125 37.8978 41.8843 84.3138C45.4743 163.161 89.6181 221.046 171.834 256.942C192.742 265.8 215.844 270.196 239.168 269.759C294.459 269.569 349.439 269.693 404.586 269.693L404.597 269.683Z" fill="#152B51"/>
<path d="M379.312 124.293C379.312 128.907 377.594 131.916 372.508 132.951C371.345 133.265 370.137 133.397 368.918 133.34C367.733 133.217 366.591 132.885 365.55 132.382C364.486 131.878 363.567 131.176 362.857 130.331C362.17 129.505 361.694 128.565 361.439 127.578C359.046 118.008 357.251 108.333 356.054 98.6021C356.032 96.6748 356.83 94.8045 358.303 93.3424C361.362 90.3234 366.592 89.7727 370.425 92.0607C372.265 93.162 373.572 94.8045 374.093 96.6748C375.965 105.903 377.539 115.264 379.334 124.302L379.312 124.293Z" fill="#152B51"/>
<path d="M380.43 143.272C381.482 143.785 384.474 144.231 385.294 145.646C388.352 150.62 390.613 155.928 392.031 161.415C392.408 163.466 388.286 167.311 385.372 168.403C383.776 168.754 382.103 168.754 380.507 168.403C378.923 168.004 377.482 167.282 376.319 166.285C373.194 161.681 370.989 156.649 369.815 151.418C368.84 146.547 373.704 143.082 380.441 143.272H380.43Z" fill="#152B51"/>
<path d="M527.366 -99.2324C527.089 -100.239 526.613 -101.198 525.948 -102.052C525.25 -102.84 524.386 -103.514 523.399 -104.036C522.38 -104.597 521.228 -104.948 520.031 -105.062C518.868 -105.252 517.671 -105.252 516.519 -105.062C507.211 -103.533 498.059 -101.388 489.139 -98.6533C421.805 -75.8298 381.328 -32.8222 361.96 25.7081C360.608 29.5531 359.489 33.4646 358.448 37.4426H359.046C357.328 44.7529 356.054 52.1203 355.157 59.4971V62.5731C354.481 71.8012 356.575 75.3899 362.636 76.4153C368.697 77.4406 373.04 73.3392 373.705 63.5984C374.736 49.4619 377.905 35.4963 383.134 22.0624C397.938 -19.2174 430.913 -53.9273 475.078 -74.738C487.898 -79.9502 501.095 -84.4693 514.58 -88.2669C516.751 -89.0359 519.289 -89.1688 521.383 -89.9378C522.546 -90.2606 523.643 -90.7638 524.596 -91.4094C525.527 -92.1025 526.314 -92.9189 526.912 -93.8493C527.455 -94.7798 527.809 -95.7766 527.964 -96.802C527.887 -97.6279 527.687 -98.4539 527.366 -99.2419V-99.2324Z" fill="#152B51"/>
<path d="M1185.95 -106.343H1090.78C1085.36 -106.343 1080.97 -102.583 1080.97 -97.9406V68.346C1081.02 154.409 999.622 224.208 899.18 224.246C898.98 224.246 898.781 224.246 898.581 224.246H765.651C763.07 224.256 760.599 225.129 758.771 226.686C756.942 228.243 755.912 230.37 755.923 232.582V313.993C755.912 316.205 756.931 318.331 758.771 319.888C760.61 321.436 763.081 322.309 765.651 322.328H898.67C941.905 322.832 984.852 316.119 1025.11 302.581V225.015H1141.14C1175.7 183.859 1195.08 130.911 1195.08 68.5359V-97.7507C1195.14 -98.8425 1194.93 -99.9344 1194.48 -100.96C1194.04 -101.995 1193.35 -102.934 1192.46 -103.713C1191.61 -104.52 1190.57 -105.156 1189.39 -105.574C1188.31 -105.991 1187.14 -106.248 1185.95 -106.343Z" fill="url(#paint1_radial_965_14774)"/>
<path d="M1185.95 -117.309H1090.78C1080.11 -117.242 1071.49 -109.846 1071.4 -100.704V65.583C1071.4 147.013 994.358 213.024 899.323 213.024C899.168 213.024 899.024 213.024 898.868 213.024H765.95C763.39 212.986 760.853 213.385 758.47 214.182C756.077 215.037 753.894 216.281 752.033 217.838C750.205 219.366 748.753 221.198 747.767 223.221C746.714 225.233 746.182 227.426 746.194 229.629V311.173C746.194 315.568 748.199 319.784 751.8 322.907C755.434 325.974 760.31 327.721 765.418 327.778H898.436C941.694 328.214 984.652 321.692 1025.09 308.543V290.59C984.995 304.964 941.893 312.179 898.436 311.809L765.263 311.486V229.563H898.58C1004.31 229.629 1090.12 156.307 1090.32 65.7159L1090.78 -100.951H1185.95V65.7159C1185.95 129.117 1164.33 183.469 1126.09 224.882H1150.63C1185.57 182.254 1205.17 127.825 1205.25 65.7159V-101.017C1205.16 -105.337 1203.09 -109.467 1199.49 -112.495C1195.87 -115.552 1191.02 -117.271 1185.95 -117.299V-117.309Z" fill="#152B51"/>
</g>
<defs>
<radialGradient id="paint0_radial_965_14774" cx="0" cy="0" r="1" gradientUnits="userSpaceOnUse" gradientTransform="translate(505.333 78.0257) rotate(0.0800942) scale(47.5932 47.6492)">
<stop stop-color="#49408E"/>
<stop offset="0.13" stop-color="#3F519C"/>
<stop offset="0.38" stop-color="#267EC2"/>
<stop offset="0.51" stop-color="#2196D4"/>
<stop offset="0.6" stop-color="#238ECE"/>
<stop offset="0.75" stop-color="#2A77BD"/>
<stop offset="0.94" stop-color="#424F9B"/>
<stop offset="1" stop-color="#49408E"/>
</radialGradient>
<radialGradient id="paint1_radial_965_14774" cx="0" cy="0" r="1" gradientUnits="userSpaceOnUse" gradientTransform="translate(793.146 -43.0167) rotate(0.0685468) scale(515.689 441.861)">
<stop stop-color="#49408E"/>
<stop offset="0.13" stop-color="#3F519C"/>
<stop offset="0.38" stop-color="#267EC2"/>
<stop offset="0.51" stop-color="#2196D4"/>
<stop offset="0.6" stop-color="#238ECE"/>
<stop offset="0.75" stop-color="#2A77BD"/>
<stop offset="0.94" stop-color="#424F9B"/>
<stop offset="1" stop-color="#49408E"/>
</radialGradient>
<clipPath id="clip0_965_14774">
<rect width="136" height="91" fill="white" transform="translate(501 46)"/>
</clipPath>
</defs>
</svg>
