<svg width="319" height="51" viewBox="0 0 319 51" fill="none" xmlns="http://www.w3.org/2000/svg">
<rect x="3" y="0.818359" width="316" height="50" rx="10" fill="url(#paint0_linear_1103_6898)"/>
<mask id="mask0_1103_6898" style="mask-type:alpha" maskUnits="userSpaceOnUse" x="0" y="0" width="316" height="51">
<rect y="0.818359" width="316" height="50" rx="10" fill="url(#paint1_linear_1103_6898)"/>
</mask>
<g mask="url(#mask0_1103_6898)">
<g opacity="0.2">
<g clip-path="url(#clip0_1103_6898)">
<g clip-path="url(#clip1_1103_6898)">
<path d="M72.2316 69.497L112.321 32.219C115.444 38.2377 116.775 42.1812 116.266 45.687C115.743 49.2947 113.251 52.5637 108.322 57.2217C100.118 64.9705 91.8785 72.681 83.5419 80.4821C80.0321 83.7665 76.505 87.067 72.9564 90.3931L7.85355 29.0686L116.162 -72.7908C168.463 -67.8911 215.904 -53.2574 250.446 -11.6427C273.763 16.4504 272.065 53.9689 245.424 82.2229C222.925 106.083 194.05 119.752 162.1 127.489C161.689 127.511 161.277 127.448 160.892 127.303C160.799 127.267 160.708 127.228 160.619 127.183C182.058 121.394 201.98 112.561 219.565 99.418C228.719 92.84 236.997 85.1606 244.207 76.5596L244.207 76.5596L244.214 76.5511C254.469 63.759 259.05 49.437 258.13 35.3809C257.21 21.326 250.791 7.57644 239.116 -4.07906L238.802 -3.76454L239.116 -4.0791C213.747 -29.3993 181.709 -41.9057 147.139 -48.9568C140.999 -50.2106 134.761 -51.0479 128.41 -51.9002C125.474 -52.2941 122.515 -52.6913 119.53 -53.1343L119.29 -53.1699L119.114 -53.0034L33.9152 27.3812L33.5582 27.718L33.8884 28.0812C38.0259 32.6314 42.1232 37.1375 46.2129 41.6352C54.5881 50.8461 62.9311 60.0216 71.5212 69.4672L71.8614 69.8413L72.2316 69.497Z" stroke="white"/>
<path d="M68.022 107.102L68.2668 107.142L68.4473 106.972L156.467 23.9076L156.853 23.5431L156.466 23.1795L114.82 -15.9338L114.479 -16.2542L114.136 -15.935L75.8712 19.7645C72.6576 14.9019 71.2243 11.4031 71.4914 8.21627C71.7665 4.93464 73.8582 1.84267 78.0923 -2.17237C86.5876 -10.2267 95.1448 -18.2161 103.863 -26.3562C107.462 -29.7158 111.088 -33.101 114.748 -36.527L178.976 24.0812C152.049 49.4385 125.421 74.5083 98.4998 99.8545C89.5473 108.283 80.5624 116.742 71.5232 125.253C17.4476 120.668 -31.7416 104.893 -65.9417 59.7531C-80.9692 39.9186 -82.9281 16.7867 -72.3569 -5.81406L-72.8098 -6.02589L-72.3569 -5.81408C-58.3584 -35.7458 -33.7387 -51.346 -5.9899 -62.6454C-14.8883 -58.2982 -23.4242 -53.2157 -31.4307 -47.2045L-31.4308 -47.2044C-41.1808 -39.8789 -50.7659 -31.6004 -58.1863 -22.0388L-57.8171 -21.7523L-58.1863 -22.0388C-67.975 -9.42525 -72.1864 4.56123 -71.1308 18.2648C-70.0753 31.9661 -63.7578 45.3469 -52.5552 56.7608L-52.2035 56.4156L-52.5552 56.7608C-28.1679 81.6033 2.63182 94.2528 36.0229 101.681L36.0232 101.681C43.1745 103.268 50.4482 104.376 57.7975 105.495C61.1911 106.012 64.6007 106.531 68.022 107.102Z" stroke="white"/>
<path d="M84.8498 49.3249C82.152 52.2166 79.4349 55.129 76.6943 58.0715C73.345 53.0056 72.0635 48.2249 72.3493 43.9957C72.6447 39.6253 74.6165 35.7954 77.8004 32.7988C85.345 25.6987 92.2875 17.9683 99.59 9.83711C102.609 6.47589 105.689 3.04618 108.899 -0.435845C111.697 4.90503 112.89 9.49692 112.723 13.5022C112.551 17.6484 110.919 21.2147 108.007 24.3799L108.007 24.3801C100.383 32.6755 92.698 40.9126 84.8498 49.3249Z" stroke="white"/>
</g>
</g>
</g>
<g clip-path="url(#clip2_1103_6898)">
<g clip-path="url(#clip3_1103_6898)">
<path d="M261.98 26.3047C263.161 28.5497 263.053 29.2897 261.308 30.9385C259.225 32.9063 257.128 34.8603 254.987 36.8671L243.335 25.8909L262.604 7.76953C271.887 8.63408 280.328 11.2258 286.472 18.6283C290.63 23.6377 290.324 30.3288 285.579 35.3602C281.58 39.6015 276.449 42.0277 270.78 43.3996C270.692 43.4056 270.604 43.3927 270.521 43.3616C270.439 43.3305 270.365 43.2821 270.304 43.2198C274.158 42.1982 277.735 40.6267 280.886 38.2717C282.5 37.1116 283.96 35.7571 285.232 34.2402C288.837 29.7429 288.442 24.1857 284.336 20.0863C279.863 15.6214 274.21 13.413 268.101 12.1668C266.514 11.8429 264.895 11.677 263.218 11.4282L248.138 25.6566C250.37 28.1114 252.536 30.4938 254.799 32.9821L261.98 26.3047Z" fill="white"/>
<path d="M254.128 39.6159L269.707 24.9132L262.336 17.9899L255.487 24.38C254.266 22.5651 254.331 21.7231 255.835 20.297C257.979 18.2644 260.145 16.2548 262.384 14.1589L273.881 25.0083C267.498 31.0203 261.209 36.9401 254.765 43.0076C245.166 42.1994 236.414 39.4053 230.33 31.3758C227.65 27.8376 227.301 23.7079 229.185 19.6792C232.582 12.4152 239.496 9.89885 246.501 7.60742C242.953 8.709 239.548 10.2198 236.563 12.4611C234.84 13.7558 233.15 15.2156 231.844 16.8991C228.403 21.3326 228.893 26.716 232.834 30.7307C237.134 35.1112 242.567 37.3446 248.468 38.6574C250.316 39.0674 252.205 39.2956 254.128 39.6159Z" fill="white"/>
<path d="M261.367 20.5171C262.451 22.5187 262.311 23.9739 261.255 25.1211C259.417 27.1208 257.56 29.1015 255.636 31.1666C254.341 29.2797 254.626 27.5753 255.783 26.487C257.695 24.6877 259.385 22.6625 261.367 20.5171Z" fill="white"/>
</g>
</g>
</g>
<defs>
<linearGradient id="paint0_linear_1103_6898" x1="148.632" y1="25.6818" x2="319" y2="25.6818" gradientUnits="userSpaceOnUse">
<stop stop-color="#B09430"/>
<stop offset="1" stop-color="#006839"/>
</linearGradient>
<linearGradient id="paint1_linear_1103_6898" x1="145.632" y1="25.6818" x2="316" y2="25.6818" gradientUnits="userSpaceOnUse">
<stop stop-color="#B09430"/>
<stop offset="1" stop-color="#006839"/>
</linearGradient>
<clipPath id="clip0_1103_6898">
<rect x="-79.5078" y="-146.481" width="346.754" height="346.754" rx="10" fill="white"/>
</clipPath>
<clipPath id="clip1_1103_6898">
<rect width="346.754" height="202.273" fill="white" transform="translate(-79.5078 -74.2417)"/>
</clipPath>
<clipPath id="clip2_1103_6898">
<rect x="228" y="-5.18164" width="61.377" height="61.377" rx="10" fill="white"/>
</clipPath>
<clipPath id="clip3_1103_6898">
<rect width="61.377" height="35.8033" fill="white" transform="translate(228 7.60498)"/>
</clipPath>
</defs>
</svg>
