<svg width="1137" height="183" viewBox="0 0 1137 183" fill="none" xmlns="http://www.w3.org/2000/svg">
<rect width="1137" height="183" rx="29" fill="url(#paint0_linear_965_14849)"/>
<mask id="mask0_965_14849" style="mask-type:alpha" maskUnits="userSpaceOnUse" x="0" y="0" width="1137" height="183">
<rect width="1137" height="183" rx="29" fill="url(#paint1_linear_965_14849)"/>
</mask>
<g mask="url(#mask0_965_14849)">
<g opacity="0.2">
<g clip-path="url(#clip0_965_14849)">
<path d="M907.082 290.443L907.089 290.434C945.986 241.912 963.32 187.65 959.837 134.445C956.353 81.24 932.055 29.1311 887.758 -15.0933C791.306 -111.358 669.458 -158.954 537.807 -185.807C514.446 -190.578 490.74 -193.759 466.554 -197.005C455.351 -198.508 444.045 -200.025 432.623 -201.721L432.383 -201.756L432.206 -201.59L107.387 104.877L107.03 105.213L107.36 105.577C123.177 122.971 138.839 140.196 154.473 157.39C186.361 192.46 218.128 227.397 250.835 263.361L251.175 263.735L251.545 263.39L405.737 120.012C418.246 143.871 423.835 159.671 421.777 173.847C419.704 188.128 409.852 200.886 391.062 218.643C359.788 248.184 328.373 277.581 296.592 307.321C282.89 320.143 269.12 333.028 255.264 346.016L5.00979 110.286L419.488 -279.511C619.3 -260.874 800.852 -205.06 933.029 -45.823C1022.41 61.8659 1015.85 205.703 913.82 313.902C827.776 405.156 717.37 457.374 595.337 486.91C593.529 487.028 591.715 486.758 590.024 486.12C588.596 485.58 587.284 484.788 586.152 483.786C668.885 461.765 745.697 427.951 813.381 377.359C848.191 352.347 879.668 323.147 907.082 290.443Z" stroke="white"/>
<path d="M236.687 406.399L236.932 406.44L237.112 406.27L572.686 89.5866L573.072 89.2221L572.685 88.8585L413.909 -60.2611L413.568 -60.5815L413.226 -60.2622L266.128 76.9728C253.215 57.6864 247.195 43.6341 248.282 30.6687C249.377 17.6052 257.7 5.50369 273.881 -9.84097C306.276 -40.554 338.909 -71.0216 372.153 -102.06C386.184 -115.16 400.325 -128.362 414.602 -141.728L661.518 91.2723C558.375 188.404 456.389 284.422 353.271 381.506C319.103 413.675 284.811 445.96 250.311 478.441C43.7144 461.015 -144.538 400.843 -275.402 228.12C-333.024 152.065 -340.526 63.3153 -300.013 -23.3003L-300.466 -23.5121L-300.013 -23.3003C-238.392 -155.058 -122.99 -214.212 2.16 -259.119C-48.8368 -238.515 -97.4948 -212.693 -141.863 -179.381L-141.863 -179.381C-178.993 -151.485 -215.423 -120.01 -243.603 -83.6993C-280.726 -35.8625 -296.657 17.1202 -292.662 68.9881C-288.667 120.854 -264.749 171.567 -222.241 214.877L-221.884 214.527L-222.241 214.877C-129.526 309.323 -12.3937 357.46 114.765 385.747C141.983 391.788 169.635 395.999 197.629 400.263C210.578 402.235 223.6 404.219 236.687 406.399Z" stroke="white"/>
<path d="M301.637 188.474C290.955 199.924 280.195 211.458 269.338 223.116C255.699 203.056 250.407 184.009 251.549 167.101C252.702 150.05 260.4 135.127 272.771 123.483C301.49 96.4561 327.896 67.0539 355.717 36.0754C367.655 22.7821 379.854 9.19851 392.609 -4.6122C404.014 16.634 408.951 34.9583 408.284 50.9975C407.61 67.1784 401.23 81.0826 389.934 93.3622L389.934 93.3624C360.862 124.993 331.559 156.402 301.637 188.474Z" stroke="white"/>
</g>
</g>
<g clip-path="url(#clip1_965_14849)">
<path d="M840.543 94.0449C845.046 102.604 844.633 105.425 837.982 111.711C830.04 119.213 822.046 126.663 813.884 134.314L769.459 92.4671L842.921 23.3794C878.315 26.6755 910.494 36.5564 933.92 64.7785C949.771 83.8767 948.604 109.387 930.516 128.569C915.269 144.739 895.707 153.989 874.092 159.219C873.757 159.242 873.421 159.193 873.107 159.074C872.793 158.956 872.51 158.771 872.277 158.533C886.971 154.639 900.61 148.647 912.621 139.669C918.777 135.246 924.343 130.082 929.191 124.299C942.936 107.153 941.431 85.9661 925.776 70.337C908.721 53.3146 887.172 44.8952 863.878 40.144C857.831 38.909 851.657 38.2768 845.265 37.328L787.77 91.5739C796.28 100.933 804.538 110.016 813.166 119.502L840.543 94.0449Z" fill="white"/>
<path d="M810.612 144.793L870.01 88.7384L841.906 62.3436L815.793 86.7056C811.14 79.7864 811.386 76.5763 817.12 71.1394C825.294 63.3898 833.553 55.7283 842.089 47.7376L885.923 89.1012C861.584 112.022 837.61 134.591 813.041 157.723C776.445 154.642 743.078 143.99 719.885 113.377C709.664 99.8878 708.334 84.1435 715.519 68.7838C728.471 41.09 754.828 31.4963 781.534 22.7603C768.007 26.96 755.027 32.7198 743.645 41.2651C737.076 46.2008 730.635 51.7665 725.654 58.1846C712.536 75.0875 714.405 95.6115 729.428 110.918C745.822 127.618 766.537 136.133 789.036 141.138C796.079 142.701 803.282 143.571 810.612 144.793Z" fill="white"/>
<path d="M838.215 71.9785C842.345 79.6096 841.811 85.1576 837.787 89.5314C830.78 97.1552 823.697 104.707 816.365 112.58C811.427 105.386 812.514 98.8881 816.923 94.7386C824.212 87.8791 830.656 80.1579 838.215 71.9785Z" fill="white"/>
</g>
</g>
<defs>
<linearGradient id="paint0_linear_965_14849" x1="524" y1="91" x2="1137" y2="91" gradientUnits="userSpaceOnUse">
<stop stop-color="#B09430"/>
<stop offset="1" stop-color="#006839"/>
</linearGradient>
<linearGradient id="paint1_linear_965_14849" x1="524" y1="91" x2="1137" y2="91" gradientUnits="userSpaceOnUse">
<stop stop-color="#B09430"/>
<stop offset="1" stop-color="#006839"/>
</linearGradient>
<clipPath id="clip0_965_14849">
<rect width="1322" height="771.167" fill="white" transform="translate(-326 -283.583)"/>
</clipPath>
<clipPath id="clip1_965_14849">
<rect width="234" height="136.5" fill="white" transform="translate(711 22.75)"/>
</clipPath>
</defs>
</svg>
