<svg width="1440" height="685" viewBox="0 0 1440 685" fill="none" xmlns="http://www.w3.org/2000/svg">
<path d="M1468.46 256.884C1459.88 219.833 1436.57 182.251 1393.37 155.633C1347.53 127.397 1284.14 114.397 1223.1 111.177C1162.06 107.957 1101.87 113.499 1041.68 117.077C851.42 128.384 656.05 119.959 465.145 92.2276C355.411 76.288 241.603 53.899 135.598 69.6324C11.9245 87.9881 -80.5472 162.326 -83.1038 245.442L-101.428 346.5C-131.424 375.068 -116.913 417.407 -82.1698 446.999C-47.4261 476.59 3.31928 496.349 52.5783 515.274C117.145 540.067 182.56 565.113 253.461 579.167C377.727 603.794 507.623 592.617 630.637 577.102C753.651 561.587 877.543 541.823 1005.04 550.032C1064.92 553.883 1124.3 563.871 1184.18 567.658C1244.06 571.446 1306.73 568.443 1355.35 548.339C1398.74 530.389 1426.87 500.322 1442.64 468.219C1458.41 436.118 1462.97 401.746 1467.45 367.669C1472.26 331.002 1477.04 293.935 1468.48 256.896L1468.46 256.884Z" fill="#FCF9F3"/>
</svg>
