<svg width="1137" height="183" viewBox="0 0 1137 183" fill="none" xmlns="http://www.w3.org/2000/svg">
<rect width="1137" height="183" rx="29" fill="url(#paint0_linear_1102_6895)"/>
<mask id="mask0_1102_6895" style="mask-type:alpha" maskUnits="userSpaceOnUse" x="0" y="0" width="1137" height="183">
<rect width="1137" height="183" rx="29" fill="url(#paint1_linear_1102_6895)"/>
</mask>
<g mask="url(#mask0_1102_6895)">
<g clip-path="url(#clip0_1102_6895)">
<path d="M53.4228 257.792L243.828 11.4679L202.013 -203.056" stroke="white" stroke-width="2" stroke-miterlimit="10"/>
<path d="M243.828 11.468L1224.8 115.938L936.389 429.914L813.409 -299.153" stroke="white" stroke-width="2" stroke-miterlimit="10"/>
</g>
</g>
<g clip-path="url(#clip1_1102_6895)">
<path d="M231 92.1855C231 91.7966 231.196 91.6006 231.589 91.6006H235.408C235.877 91.6006 236.19 91.7966 236.348 92.1855L248.276 119.028H248.453L260.147 92.1855C260.302 91.7966 260.615 91.6006 261.087 91.6006H264.907C265.299 91.6006 265.495 91.7966 265.495 92.1855V130.865C265.495 131.257 265.296 131.45 264.9 131.45H261.16C260.764 131.45 260.565 131.254 260.565 130.865V103.144H260.388L250.498 125.063C250.302 125.531 249.95 125.765 249.444 125.765H247.102C246.555 125.765 246.184 125.531 245.991 125.063L236.102 103.144H235.924V130.865C235.924 131.257 235.725 131.45 235.329 131.45H231.595C231.199 131.45 231 131.254 231 130.865V92.1855Z" fill="white"/>
<path d="M289.896 131.45C289.503 131.45 289.31 131.254 289.31 130.865V128.228H289.25C288.506 129.401 287.5 130.337 286.228 131.042C284.956 131.744 283.402 132.098 281.563 132.098C278.474 132.098 276.079 131.13 274.376 129.195C272.673 127.261 271.825 124.693 271.825 121.487V103.966C271.825 103.577 272.021 103.381 272.411 103.381H276.164C276.553 103.381 276.749 103.577 276.749 103.966V120.318C276.749 122.622 277.256 124.399 278.275 125.651C279.291 126.903 280.857 127.526 282.968 127.526C284.883 127.526 286.418 126.903 287.573 125.651C288.725 124.402 289.304 122.72 289.304 120.612V103.969C289.304 103.58 289.5 103.384 289.889 103.384H293.643C294.032 103.384 294.228 103.58 294.228 103.969V130.868C294.228 131.26 294.032 131.453 293.643 131.453H289.889L289.896 131.45Z" fill="white"/>
<path d="M318.524 142C318.131 142 317.938 141.804 317.938 141.415V128.171H317.881C317.217 129.306 316.248 130.242 314.976 130.985C313.704 131.728 312.014 132.098 309.903 132.098C307.438 132.098 305.387 131.532 303.745 130.397C302.102 129.265 300.928 127.583 300.225 125.357C299.833 124.225 299.57 123.052 299.434 121.841C299.298 120.631 299.229 119.145 299.229 117.387C299.229 115.629 299.295 114.156 299.434 112.964C299.57 111.772 299.836 110.611 300.225 109.476C300.928 107.251 302.102 105.569 303.745 104.437C305.387 103.305 307.441 102.736 309.903 102.736C312.014 102.736 313.707 103.096 314.976 103.82C316.245 104.544 317.214 105.471 317.881 106.602H317.938V103.966C317.938 103.577 318.135 103.381 318.524 103.381H322.277C322.666 103.381 322.863 103.577 322.863 103.966V141.415C322.863 141.804 322.666 142 322.277 142H318.524ZM311.074 127.526C314.28 127.526 316.353 126.1 317.293 123.248C317.527 122.584 317.695 121.794 317.793 120.874C317.891 119.957 317.938 118.794 317.938 117.387C317.938 115.98 317.888 114.829 317.793 113.928C317.695 113.03 317.53 112.227 317.293 111.525C316.353 108.711 314.28 107.304 311.074 107.304C307.868 107.304 305.89 108.711 304.916 111.525C304.681 112.306 304.514 113.166 304.415 114.105C304.317 115.044 304.27 116.138 304.27 117.387C304.27 118.636 304.317 119.79 304.415 120.729C304.514 121.668 304.678 122.509 304.916 123.248C305.893 126.1 307.947 127.526 311.074 127.526Z" fill="white"/>
<path d="M340.053 132.095C337.198 132.095 334.802 131.44 332.865 130.131C330.929 128.822 329.571 126.938 328.789 124.475C328.476 123.577 328.242 122.581 328.087 121.487C327.928 120.393 327.853 119.028 327.853 117.384C327.853 115.74 327.919 114.364 328.058 113.251C328.194 112.138 328.419 111.152 328.732 110.292C329.514 107.832 330.875 105.954 332.808 104.668C334.745 103.378 337.062 102.733 339.761 102.733C342.461 102.733 344.777 103.387 346.714 104.696C348.651 106.005 350.009 107.87 350.79 110.292C350.945 110.76 351.075 111.241 351.173 111.727C351.271 112.218 351.357 112.774 351.436 113.397C351.515 114.023 351.572 114.734 351.613 115.537C351.651 116.337 351.67 117.267 351.67 118.319C351.67 118.711 351.455 118.904 351.025 118.904H333.248C333.014 118.904 332.897 119.021 332.897 119.255C332.897 120.036 332.935 120.681 333.014 121.19C333.093 121.699 333.21 122.186 333.365 122.654C333.913 124.295 334.793 125.515 336.005 126.318C337.217 127.118 338.704 127.52 340.464 127.52C342.224 127.52 343.572 127.226 344.746 126.641C345.92 126.056 346.895 125.313 347.679 124.415C347.993 124.102 348.284 124.064 348.559 124.298L350.964 126.467C351.237 126.701 351.259 126.976 351.025 127.286C349.888 128.693 348.395 129.844 346.537 130.745C344.679 131.642 342.518 132.091 340.056 132.091L340.053 132.095ZM346.271 114.924C346.505 114.924 346.622 114.807 346.622 114.576C346.622 113.296 346.486 112.249 346.211 111.433C345.743 110.039 344.948 108.961 343.834 108.205C342.72 107.45 341.36 107.07 339.758 107.07C338.157 107.07 336.796 107.45 335.682 108.205C334.568 108.961 333.777 110.039 333.305 111.433C333.03 112.249 332.894 113.296 332.894 114.576C332.894 114.81 333.011 114.924 333.245 114.924H346.268H346.271Z" fill="white"/>
<path d="M367.155 132.095C364.3 132.095 361.905 131.44 359.968 130.131C358.031 128.822 356.674 126.938 355.892 124.475C355.579 123.577 355.344 122.581 355.189 121.487C355.031 120.393 354.955 119.028 354.955 117.384C354.955 115.74 355.022 114.364 355.161 113.251C355.297 112.138 355.522 111.152 355.835 110.292C356.617 107.832 357.977 105.954 359.911 104.668C361.848 103.378 364.164 102.733 366.864 102.733C369.563 102.733 371.88 103.387 373.817 104.696C375.754 106.005 377.111 107.87 377.893 110.292C378.048 110.76 378.178 111.241 378.276 111.727C378.374 112.218 378.459 112.774 378.539 113.397C378.618 114.023 378.675 114.734 378.716 115.537C378.754 116.337 378.773 117.267 378.773 118.319C378.773 118.711 378.558 118.904 378.127 118.904H360.351C360.117 118.904 360 119.021 360 119.255C360 120.036 360.038 120.681 360.117 121.19C360.196 121.699 360.313 122.186 360.468 122.654C361.016 124.295 361.895 125.515 363.107 126.318C364.319 127.118 365.807 127.52 367.566 127.52C369.326 127.52 370.674 127.226 371.848 126.641C373.022 126.056 373.997 125.313 374.782 124.415C375.095 124.102 375.386 124.064 375.662 124.298L378.067 126.467C378.339 126.701 378.361 126.976 378.127 127.286C376.991 128.693 375.497 129.844 373.64 130.745C371.782 131.642 369.62 132.091 367.158 132.091L367.155 132.095ZM373.374 114.924C373.608 114.924 373.725 114.807 373.725 114.576C373.725 113.296 373.589 112.249 373.314 111.433C372.845 110.039 372.051 108.961 370.937 108.205C369.823 107.45 368.462 107.07 366.861 107.07C365.259 107.07 363.899 107.45 362.785 108.205C361.671 108.961 360.879 110.039 360.408 111.433C360.133 112.249 359.996 113.296 359.996 114.576C359.996 114.81 360.114 114.924 360.348 114.924H373.371H373.374Z" fill="white"/>
<path d="M419.658 131.45C419.265 131.45 419.072 131.254 419.072 130.865V114.456C419.072 112.189 418.553 110.431 417.518 109.182C416.48 107.934 414.907 107.308 412.797 107.308C410.92 107.308 409.375 107.924 408.163 109.154C406.951 110.384 406.344 112.056 406.344 114.165V130.868C406.344 131.26 406.147 131.453 405.758 131.453H402.005C401.612 131.453 401.419 131.257 401.419 130.868V114.459C401.419 112.192 400.9 110.434 399.866 109.186C398.827 107.937 397.255 107.311 395.144 107.311C393.226 107.311 391.672 107.927 390.479 109.157C389.286 110.387 388.691 112.059 388.691 114.168V130.871C388.691 131.263 388.495 131.456 388.105 131.456H384.352C383.96 131.456 383.767 131.26 383.767 130.871V103.972C383.767 103.583 383.963 103.387 384.352 103.387H388.105C388.495 103.387 388.691 103.583 388.691 103.972V106.552H388.751C389.416 105.458 390.413 104.551 391.742 103.827C393.071 103.103 394.694 102.742 396.612 102.742C398.53 102.742 400.182 103.122 401.568 103.884C402.954 104.645 404.04 105.73 404.825 107.137H404.885C405.863 105.771 407.084 104.696 408.549 103.915C410.015 103.134 411.825 102.742 413.977 102.742C417.262 102.742 419.756 103.7 421.455 105.613C423.158 107.529 424.006 110.087 424.006 113.289V130.871C424.006 131.263 423.81 131.456 423.42 131.456H419.667L419.658 131.45Z" fill="white"/>
<path d="M248.14 72.2643C246.298 72.2643 244.678 71.964 243.279 71.3633C241.88 70.7626 240.738 69.8077 239.852 68.4988C239.497 69.0648 239.083 69.4726 238.605 69.7192C238.127 69.9658 237.665 70.2314 237.225 70.5159C236.782 70.8005 236.402 71.1704 236.083 71.632C235.763 72.0936 235.605 72.8176 235.605 73.8072V82.4574H231.143V72.6943C231.143 71.5972 231.301 70.6867 231.62 69.9627C231.94 69.2387 232.345 68.6348 232.842 68.1574C233.339 67.68 233.877 67.2816 234.462 66.9623C235.048 66.643 235.595 66.3268 236.108 66.0075C236.621 65.6882 237.064 65.3277 237.437 64.9199C237.811 64.512 238.029 63.9746 238.102 63.3011C238.067 62.9123 238.038 62.5139 238.023 62.1061C238.004 61.6982 237.997 61.2651 237.997 60.8066C237.997 56.7376 238.899 53.7942 240.706 51.9699C242.513 50.1488 244.991 49.2383 248.143 49.2383C251.295 49.2383 253.773 50.1488 255.58 51.9699C257.388 53.791 258.289 56.7376 258.289 60.8066C258.289 61.1955 258.28 61.5844 258.264 61.9733C258.245 62.3621 258.22 62.7352 258.185 63.0893C258.22 64.8946 258.584 66.1245 259.274 66.7789C259.964 67.4334 260.698 67.759 261.48 67.759H262.967C263.676 67.759 264.208 67.9108 264.562 68.2111C264.916 68.5115 265.094 69.0173 265.094 69.7224C265.094 70.6424 264.926 71.2336 264.59 71.4992C264.252 71.7648 263.714 71.8976 262.97 71.8976H261.856C261.359 71.8976 260.828 71.8723 260.261 71.8185C259.695 71.7648 259.138 71.651 258.587 71.4739C258.036 71.2969 257.514 71.0408 257.02 70.7056C256.524 70.3705 256.1 69.9184 255.745 69.3525C254.859 70.38 253.78 71.123 252.504 71.5814C251.229 72.0398 249.776 72.2706 248.15 72.2706L248.14 72.2643ZM248.14 53.3705C246.156 53.3705 244.713 54.025 243.811 55.3339C242.909 56.6428 242.456 58.4639 242.456 60.8003C242.456 63.3486 242.909 65.2044 243.811 66.3711C244.713 67.5377 246.156 68.1226 248.14 68.1226C250.125 68.1226 251.568 67.5377 252.47 66.3711C253.372 65.2044 253.824 63.3454 253.824 60.8003C253.824 58.467 253.372 56.6428 252.47 55.3339C251.568 54.025 250.125 53.3705 248.14 53.3705Z" fill="white"/>
<path d="M263.28 71.8944C262.571 71.8944 262.039 71.7711 261.685 71.5213C261.331 71.2747 261.153 70.7784 261.153 70.0354C261.153 69.1501 261.321 68.5494 261.66 68.2301C261.995 67.9108 262.536 67.7527 263.28 67.7527H266.891C267.777 67.7527 268.423 67.5504 268.831 67.1425C269.239 66.7347 269.442 66.0012 269.442 64.9389V50.7179C269.442 50.3638 269.619 50.1868 269.973 50.1868H273.372C273.727 50.1868 273.904 50.3638 273.904 50.7179V64.1453C273.904 65.3499 274.338 66.2509 275.205 66.8516C276.072 67.4523 277.23 67.7527 278.683 67.7527H279.319C280.028 67.7527 280.559 67.9045 280.914 68.2048C281.268 68.5052 281.445 69.011 281.445 69.7161C281.445 70.6361 281.278 71.2273 280.942 71.4929C280.607 71.7585 280.066 71.8913 279.322 71.8913H278.154C277.021 71.8913 276.031 71.6605 275.179 71.202C274.328 70.7436 273.673 70.0512 273.214 69.1312C272.328 70.9712 270.486 71.8913 267.688 71.8913H263.28V71.8944ZM265.989 81.765C265.635 81.765 265.457 81.5879 265.457 81.2338V77.3608C265.457 77.0067 265.635 76.8297 265.989 76.8297H269.6C269.954 76.8297 270.132 77.0067 270.132 77.3608V81.2338C270.132 81.5879 269.954 81.765 269.6 81.765H265.989ZM272.47 81.765C272.116 81.765 271.939 81.5879 271.939 81.2338V77.3608C271.939 77.0067 272.116 76.8297 272.47 76.8297H276.081C276.436 76.8297 276.613 77.0067 276.613 77.3608V81.2338C276.613 81.5879 276.436 81.765 276.081 81.765H272.47Z" fill="white"/>
<path d="M292.972 49.2351C294.779 49.2351 296.336 49.4722 297.646 49.9528C298.956 50.4302 300.045 51.0941 300.912 51.9414C301.779 52.7919 302.425 53.8068 302.852 54.9924C303.276 56.178 303.488 57.4774 303.488 58.8938C303.488 60.6991 303.07 62.3779 302.241 63.9366C301.409 65.4953 300.251 66.7852 298.763 67.8096C298.94 67.7748 299.206 67.7558 299.561 67.7558H306.944C307.653 67.7558 308.184 67.8791 308.539 68.1289C308.893 68.3755 309.071 68.8719 309.071 69.6148C309.071 70.5001 308.903 71.1008 308.567 71.4201C308.232 71.7394 307.691 71.8975 306.947 71.8975H299.883C298.608 71.8975 297.405 71.8438 296.272 71.7394C295.14 71.6351 294.06 71.262 293.032 70.6266C291.864 71.262 290.614 71.6351 289.288 71.7394C287.959 71.8469 286.782 71.8975 285.756 71.8975H279.329C277.914 71.8975 277.205 71.1893 277.205 69.7761C277.205 68.8908 277.373 68.3344 277.708 68.1036C278.044 67.8728 278.585 67.759 279.329 67.759H287.136C285.683 66.7346 284.541 65.451 283.709 63.9113C282.876 62.3716 282.462 60.6991 282.462 58.897C282.462 57.4837 282.674 56.1811 283.098 54.9955C283.522 53.8099 284.167 52.7919 285.038 51.9446C285.905 51.0941 286.994 50.4333 288.304 49.9559C289.614 49.4785 291.171 49.2382 292.978 49.2382L292.972 49.2351ZM292.972 53.3736C291.272 53.3736 289.873 53.87 288.775 54.8596C287.677 55.8492 287.13 57.2845 287.13 59.1594C287.13 61.0342 287.696 62.6719 288.829 63.9619C289.962 65.255 291.342 66.2161 292.972 66.8548C294.602 66.2193 295.981 65.255 297.114 63.9619C298.247 62.6719 298.814 61.069 298.814 59.1594C298.814 57.2498 298.263 55.8523 297.168 54.8596C296.07 53.87 294.671 53.3736 292.972 53.3736ZM287.924 44.9353C287.57 44.9353 287.392 44.7582 287.392 44.4041V40.5312C287.392 40.1771 287.57 40 287.924 40H291.535C291.889 40 292.067 40.1771 292.067 40.5312V44.4041C292.067 44.7582 291.889 44.9353 291.535 44.9353H287.924ZM294.405 44.9353C294.051 44.9353 293.874 44.7582 293.874 44.4041V40.5312C293.874 40.1771 294.051 40 294.405 40H298.016C298.371 40 298.548 40.1771 298.548 40.5312V44.4041C298.548 44.7582 298.371 44.9353 298.016 44.9353H294.405Z" fill="white"/>
<path d="M322.986 72.2643C321.321 72.2643 319.853 72.024 318.577 71.5466C317.302 71.0692 316.223 70.3168 315.337 69.2924C314.593 70.4243 313.637 71.1419 312.469 71.4423C311.302 71.7427 310.219 71.8944 309.229 71.8944H306.944C305.529 71.8944 304.82 71.1862 304.82 69.773C304.82 68.8877 304.988 68.3313 305.324 68.1005C305.659 67.8697 306.2 67.7559 306.944 67.7559H309.599C309.988 67.7559 310.378 67.6768 310.767 67.5187C311.156 67.3607 311.511 67.0951 311.83 66.722C312.15 66.3489 312.406 65.8557 312.599 65.236C312.792 64.6164 312.89 63.8481 312.89 62.9281C312.856 62.574 312.837 62.2294 312.837 61.8942V60.8066C312.837 56.7376 313.738 53.7942 315.546 51.9699C317.353 50.1488 319.831 49.2383 322.983 49.2383C326.135 49.2383 328.613 50.1488 330.42 51.9699C332.227 53.791 333.129 56.7376 333.129 60.8066C333.129 62.8237 332.888 64.5563 332.41 66.0075C331.932 67.4587 331.258 68.6443 330.391 69.5611C329.524 70.4812 328.461 71.1609 327.204 71.6035C325.948 72.0462 324.54 72.2675 322.983 72.2675L322.986 72.2643ZM322.986 53.3705C321.001 53.3705 319.558 54.025 318.656 55.3339C317.754 56.6428 317.302 58.4639 317.302 60.8003C317.302 63.3486 317.754 65.2044 318.656 66.3711C319.558 67.5377 321.001 68.1226 322.986 68.1226C324.97 68.1226 326.413 67.5377 327.315 66.3711C328.217 65.2044 328.67 63.3454 328.67 60.8003C328.67 58.467 328.217 56.6428 327.315 55.3339C326.413 54.025 324.97 53.3705 322.986 53.3705Z" fill="white"/>
</g>
<defs>
<linearGradient id="paint0_linear_1102_6895" x1="400.546" y1="97.5" x2="982" y2="97.5" gradientUnits="userSpaceOnUse">
<stop stop-color="#FA6424"/>
<stop offset="1" stop-color="#CF3C3A"/>
</linearGradient>
<linearGradient id="paint1_linear_1102_6895" x1="400.546" y1="97.5" x2="982" y2="97.5" gradientUnits="userSpaceOnUse">
<stop stop-color="#FA6424"/>
<stop offset="1" stop-color="#CF3C3A"/>
</linearGradient>
<clipPath id="clip0_1102_6895">
<rect width="1181.47" height="817.306" fill="white" transform="translate(-4.86328 -194.414) rotate(-7.29573)"/>
</clipPath>
<clipPath id="clip1_1102_6895">
<rect width="193" height="102" fill="white" transform="translate(231 40)"/>
</clipPath>
</defs>
</svg>
