<svg width="299" height="53" viewBox="0 0 299 53" fill="none" xmlns="http://www.w3.org/2000/svg">
<rect width="298.23" height="48" rx="6.19789" fill="url(#paint0_linear_1103_6899)"/>
<mask id="mask0_1103_6899" style="mask-type:alpha" maskUnits="userSpaceOnUse" x="0" y="4" width="299" height="49">
<rect y="4.31836" width="298.23" height="48" rx="6.19789" fill="url(#paint1_linear_1103_6899)"/>
</mask>
<g mask="url(#mask0_1103_6899)">
<g clip-path="url(#clip0_1103_6899)">
<path d="M14.0126 71.9361L63.955 7.32655L52.987 -48.9419" stroke="white" stroke-width="0.427441" stroke-miterlimit="10"/>
<path d="M63.955 7.32651L321.258 34.7284L245.61 117.083L213.353 -74.1479" stroke="white" stroke-width="0.427441" stroke-miterlimit="10"/>
</g>
</g>
<g clip-path="url(#clip1_1103_6899)">
<path d="M60 27.2601C60 27.1464 60.0574 27.0891 60.1721 27.0891H61.2891C61.4261 27.0891 61.5177 27.1464 61.564 27.2601L65.052 35.1094H65.1038L68.5233 27.2601C68.5686 27.1464 68.6602 27.0891 68.7981 27.0891H69.9151C70.0299 27.0891 70.0873 27.1464 70.0873 27.2601V38.5708C70.0873 38.6855 70.0289 38.7419 69.9133 38.7419H68.8194C68.7037 38.7419 68.6454 38.6846 68.6454 38.5708V30.4646H68.5936L65.7016 36.8743C65.6442 37.0112 65.5415 37.0796 65.3934 37.0796H64.7086C64.5485 37.0796 64.4402 37.0112 64.3838 36.8743L61.4918 30.4646H61.44V38.5708C61.44 38.6855 61.3817 38.7419 61.266 38.7419H60.174C60.0583 38.7419 60 38.6846 60 38.5708V27.2601Z" fill="white"/>
<path d="M77.2227 38.7419C77.108 38.7419 77.0515 38.6846 77.0515 38.5709V37.7998H77.0339C76.8164 38.1428 76.5222 38.4165 76.1501 38.6226C75.7781 38.8279 75.3237 38.9314 74.786 38.9314C73.8828 38.9314 73.1823 38.6485 72.6844 38.0827C72.1865 37.5169 71.9385 36.7662 71.9385 35.8287V30.705C71.9385 30.5913 71.9959 30.5339 72.1097 30.5339H73.2072C73.3211 30.5339 73.3785 30.5913 73.3785 30.705V35.4866C73.3785 36.1606 73.5265 36.6802 73.8245 37.0463C74.1216 37.4124 74.5797 37.5946 75.1969 37.5946C75.7568 37.5946 76.2057 37.4124 76.5434 37.0463C76.8803 36.6811 77.0497 36.1893 77.0497 35.5726V30.7059C77.0497 30.5922 77.107 30.5349 77.2209 30.5349H78.3184C78.4323 30.5349 78.4896 30.5922 78.4896 30.7059V38.5718C78.4896 38.6864 78.4323 38.7428 78.3184 38.7428H77.2209L77.2227 38.7419Z" fill="white"/>
<path d="M85.5936 41.827C85.4788 41.827 85.4223 41.7696 85.4223 41.6559V37.7831H85.4057C85.2113 38.115 84.9282 38.3886 84.5561 38.6059C84.1841 38.8232 83.6899 38.9313 83.0727 38.9313C82.3518 38.9313 81.7521 38.7658 81.2718 38.4339C80.7915 38.1029 80.4481 37.6111 80.2427 36.9602C80.1279 36.6292 80.0511 36.2862 80.0113 35.9321C79.9715 35.5781 79.9512 35.1435 79.9512 34.6295C79.9512 34.1154 79.9706 33.6846 80.0113 33.3361C80.0511 32.9875 80.1289 32.6482 80.2427 32.3163C80.4481 31.6654 80.7915 31.1736 81.2718 30.8426C81.7521 30.5116 82.3527 30.3452 83.0727 30.3452C83.6899 30.3452 84.185 30.4506 84.5561 30.6623C84.9272 30.874 85.2104 31.1449 85.4057 31.4759H85.4223V30.7049C85.4223 30.5911 85.4797 30.5338 85.5936 30.5338H86.6911C86.805 30.5338 86.8623 30.5911 86.8623 30.7049V41.6559C86.8623 41.7696 86.805 41.827 86.6911 41.827H85.5936ZM83.4151 37.5945C84.3525 37.5945 84.9587 37.1775 85.2336 36.3436C85.302 36.1494 85.3511 35.9183 85.3798 35.6492C85.4085 35.3811 85.4223 35.0409 85.4223 34.6295C85.4223 34.2181 85.4075 33.8815 85.3798 33.6181C85.3511 33.3555 85.303 33.1207 85.2336 32.9154C84.9587 32.0926 84.3525 31.6812 83.4151 31.6812C82.4776 31.6812 81.8992 32.0926 81.6142 32.9154C81.5457 33.1438 81.4966 33.3952 81.468 33.6698C81.4393 33.9444 81.4254 34.2643 81.4254 34.6295C81.4254 34.9947 81.4393 35.3321 81.468 35.6067C81.4966 35.8813 81.5448 36.1272 81.6142 36.3436C81.9001 37.1775 82.5007 37.5945 83.4151 37.5945Z" fill="white"/>
<path d="M91.8898 38.9303C91.0551 38.9303 90.3545 38.739 89.7882 38.3562C89.2218 37.9735 88.8248 37.4224 88.5962 36.7022C88.5046 36.4397 88.4361 36.1484 88.3907 35.8285C88.3445 35.5087 88.3223 35.1093 88.3223 34.6285C88.3223 34.1478 88.3417 33.7456 88.3824 33.4201C88.4222 33.0947 88.4879 32.8063 88.5795 32.5548C88.8081 31.8355 89.2061 31.2863 89.7715 30.9101C90.3379 30.5328 91.0153 30.3442 91.8047 30.3442C92.5941 30.3442 93.2715 30.5356 93.8379 30.9184C94.4042 31.3011 94.8012 31.8466 95.0298 32.5548C95.0752 32.6916 95.1131 32.8321 95.1418 32.9745C95.1705 33.1178 95.1955 33.2805 95.2186 33.4627C95.2417 33.6457 95.2584 33.8538 95.2704 34.0886C95.2815 34.3225 95.2871 34.5943 95.2871 34.9022C95.2871 35.0168 95.2242 35.0732 95.0983 35.0732H89.9001C89.8317 35.0732 89.7974 35.1074 89.7974 35.1758C89.7974 35.4042 89.8085 35.5928 89.8317 35.7416C89.8548 35.8905 89.889 36.0329 89.9344 36.1697C90.0945 36.6495 90.3517 37.0064 90.7062 37.2412C91.0606 37.4751 91.4956 37.5926 92.0101 37.5926C92.5247 37.5926 92.9189 37.5066 93.2622 37.3355C93.6056 37.1645 93.8906 36.9472 94.1201 36.6847C94.2117 36.5931 94.2969 36.582 94.3774 36.6505L95.0807 37.2847C95.1603 37.3531 95.1668 37.4335 95.0983 37.5241C94.7661 37.9356 94.3293 38.2721 93.786 38.5356C93.2428 38.7981 92.6107 38.9294 91.8907 38.9294L91.8898 38.9303ZM93.7083 33.9092C93.7768 33.9092 93.811 33.875 93.811 33.8075C93.811 33.4331 93.7712 33.1271 93.6907 32.8885C93.5538 32.4808 93.3215 32.1656 92.9957 31.9446C92.67 31.7236 92.272 31.6127 91.8038 31.6127C91.3355 31.6127 90.9375 31.7236 90.6118 31.9446C90.286 32.1656 90.0547 32.4808 89.9168 32.8885C89.8363 33.1271 89.7965 33.4331 89.7965 33.8075C89.7965 33.8759 89.8307 33.9092 89.8992 33.9092H93.7074H93.7083Z" fill="white"/>
<path d="M99.8146 38.9303C98.9799 38.9303 98.2793 38.739 97.713 38.3562C97.1466 37.9735 96.7496 37.4224 96.521 36.7022C96.4294 36.4397 96.3609 36.1484 96.3156 35.8285C96.2693 35.5087 96.2471 35.1093 96.2471 34.6285C96.2471 34.1478 96.2665 33.7456 96.3072 33.4201C96.347 33.0947 96.4127 32.8063 96.5043 32.5548C96.7329 31.8355 97.1309 31.2863 97.6963 30.9101C98.2627 30.5328 98.9401 30.3442 99.7295 30.3442C100.519 30.3442 101.196 30.5356 101.763 30.9184C102.329 31.3011 102.726 31.8466 102.955 32.5548C103 32.6916 103.038 32.8321 103.067 32.9745C103.095 33.1178 103.12 33.2805 103.143 33.4627C103.167 33.6457 103.183 33.8538 103.195 34.0886C103.206 34.3225 103.212 34.5943 103.212 34.9022C103.212 35.0168 103.149 35.0732 103.023 35.0732H97.8249C97.7565 35.0732 97.7222 35.1074 97.7222 35.1758C97.7222 35.4042 97.7333 35.5928 97.7565 35.7416C97.7796 35.8905 97.8138 36.0329 97.8592 36.1697C98.0193 36.6495 98.2766 37.0064 98.631 37.2412C98.9854 37.4751 99.4204 37.5926 99.9349 37.5926C100.449 37.5926 100.844 37.5066 101.187 37.3355C101.53 37.1645 101.815 36.9472 102.045 36.6847C102.137 36.5931 102.222 36.582 102.302 36.6505L103.006 37.2847C103.085 37.3531 103.092 37.4335 103.023 37.5241C102.691 37.9356 102.254 38.2721 101.711 38.5356C101.168 38.7981 100.536 38.9294 99.8156 38.9294L99.8146 38.9303ZM101.633 33.9092C101.702 33.9092 101.736 33.875 101.736 33.8075C101.736 33.4331 101.696 33.1271 101.616 32.8885C101.479 32.4808 101.246 32.1656 100.921 31.9446C100.595 31.7236 100.197 31.6127 99.7286 31.6127C99.2603 31.6127 98.8624 31.7236 98.5366 31.9446C98.2108 32.1656 97.9795 32.4808 97.8416 32.8885C97.7611 33.1271 97.7213 33.4331 97.7213 33.8075C97.7213 33.8759 97.7555 33.9092 97.824 33.9092H101.632H101.633Z" fill="white"/>
<path d="M115.168 38.7419C115.053 38.7419 114.997 38.6846 114.997 38.5709V33.7726C114.997 33.1097 114.845 32.5956 114.543 32.2304C114.239 31.8652 113.779 31.6822 113.162 31.6822C112.613 31.6822 112.161 31.8625 111.807 32.2221C111.453 32.5818 111.275 33.0708 111.275 33.6875V38.5718C111.275 38.6864 111.218 38.7428 111.104 38.7428H110.006C109.891 38.7428 109.835 38.6855 109.835 38.5718V33.7735C109.835 33.1106 109.683 32.5965 109.381 32.2314C109.077 31.8662 108.617 31.6831 108 31.6831C107.439 31.6831 106.985 31.8634 106.636 32.223C106.287 32.5827 106.113 33.0718 106.113 33.6884V38.5727C106.113 38.6874 106.055 38.7437 105.942 38.7437H104.844C104.729 38.7437 104.673 38.6864 104.673 38.5727V30.7068C104.673 30.5931 104.73 30.5358 104.844 30.5358H105.942C106.055 30.5358 106.113 30.5931 106.113 30.7068V31.4612H106.13C106.325 31.1413 106.616 30.876 107.005 30.6643C107.394 30.4526 107.868 30.3472 108.429 30.3472C108.99 30.3472 109.473 30.4581 109.878 30.6809C110.284 30.9037 110.601 31.2208 110.831 31.6323H110.848C111.134 31.2329 111.491 30.9185 111.92 30.6902C112.348 30.4618 112.878 30.3472 113.507 30.3472C114.468 30.3472 115.197 30.6273 115.694 31.1866C116.192 31.7469 116.44 32.4949 116.44 33.4314V38.5727C116.44 38.6874 116.382 38.7437 116.269 38.7437H115.171L115.168 38.7419Z" fill="white"/>
<path d="M65.0125 21.4348C64.4739 21.4348 64.0001 21.3469 63.591 21.1713C63.182 20.9956 62.8479 20.7164 62.5888 20.3337C62.4851 20.4991 62.3639 20.6184 62.2242 20.6905C62.0844 20.7626 61.9493 20.8403 61.8207 20.9235C61.6911 21.0067 61.5801 21.1149 61.4866 21.2499C61.3931 21.3848 61.3469 21.5966 61.3469 21.8859V24.4155H60.042V21.5605C60.042 21.2397 60.0883 20.9734 60.1817 20.7617C60.2752 20.55 60.3937 20.3734 60.539 20.2338C60.6842 20.0942 60.8416 19.9777 61.0128 19.8843C61.184 19.791 61.3441 19.6985 61.494 19.6051C61.6439 19.5117 61.7735 19.4063 61.8827 19.2871C61.9919 19.1678 62.0557 19.0106 62.077 18.8137C62.0668 18.7 62.0585 18.5835 62.0539 18.4643C62.0483 18.345 62.0465 18.2183 62.0465 18.0843C62.0465 16.8944 62.3102 16.0337 62.8387 15.5002C63.3671 14.9677 64.0917 14.7014 65.0134 14.7014C65.9352 14.7014 66.6598 14.9677 67.1882 15.5002C67.7166 16.0327 67.9804 16.8944 67.9804 18.0843C67.9804 18.198 67.9776 18.3117 67.973 18.4254C67.9674 18.5391 67.96 18.6482 67.9498 18.7518C67.96 19.2797 68.0664 19.6393 68.2682 19.8307C68.4699 20.0221 68.6846 20.1173 68.9132 20.1173H69.3482C69.5555 20.1173 69.7109 20.1617 69.8146 20.2495C69.9182 20.3373 69.9701 20.4853 69.9701 20.6914C69.9701 20.9605 69.921 21.1334 69.8229 21.211C69.7239 21.2887 69.5666 21.3275 69.3491 21.3275H69.0233C68.8781 21.3275 68.7226 21.3201 68.5569 21.3044C68.3913 21.2887 68.2284 21.2554 68.0674 21.2036C67.9063 21.1519 67.7537 21.077 67.6093 20.979C67.464 20.881 67.34 20.7488 67.2363 20.5833C66.9772 20.8837 66.6616 21.101 66.2887 21.2351C65.9157 21.3691 65.491 21.4366 65.0153 21.4366L65.0125 21.4348ZM65.0125 15.9098C64.4323 15.9098 64.0103 16.1012 63.7465 16.4839C63.4828 16.8667 63.3504 17.3992 63.3504 18.0824C63.3504 18.8276 63.4828 19.3703 63.7465 19.7114C64.0103 20.0526 64.4323 20.2236 65.0125 20.2236C65.5928 20.2236 66.0148 20.0526 66.2785 19.7114C66.5423 19.3703 66.6746 18.8267 66.6746 18.0824C66.6746 17.4001 66.5423 16.8667 66.2785 16.4839C66.0148 16.1012 65.5928 15.9098 65.0125 15.9098Z" fill="white"/>
<path d="M69.4403 21.3266C69.233 21.3266 69.0775 21.2905 68.9738 21.2175C68.8702 21.1454 68.8184 21.0002 68.8184 20.783C68.8184 20.5241 68.8674 20.3484 68.9664 20.2551C69.0645 20.1617 69.2228 20.1154 69.4403 20.1154H70.4962C70.7553 20.1154 70.9441 20.0563 71.0635 19.937C71.1828 19.8177 71.2421 19.6033 71.2421 19.2926V15.1341C71.2421 15.0305 71.2939 14.9788 71.3975 14.9788H72.3915C72.4951 14.9788 72.5469 15.0305 72.5469 15.1341V19.0606C72.5469 19.4128 72.6737 19.6763 72.9273 19.852C73.1809 20.0276 73.5196 20.1154 73.9443 20.1154H74.1304C74.3377 20.1154 74.4931 20.1598 74.5968 20.2477C74.7004 20.3355 74.7523 20.4834 74.7523 20.6896C74.7523 20.9586 74.7032 21.1315 74.6051 21.2092C74.507 21.2868 74.3488 21.3257 74.1313 21.3257H73.7898C73.4585 21.3257 73.1688 21.2582 72.9199 21.1241C72.671 20.9901 72.4794 20.7876 72.3452 20.5185C72.0861 21.0566 71.5475 21.3257 70.7294 21.3257H69.4403V21.3266ZM70.2324 24.213C70.1288 24.213 70.077 24.1612 70.077 24.0576V22.9251C70.077 22.8215 70.1288 22.7698 70.2324 22.7698H71.2883C71.392 22.7698 71.4438 22.8215 71.4438 22.9251V24.0576C71.4438 24.1612 71.392 24.213 71.2883 24.213H70.2324ZM72.1277 24.213C72.0241 24.213 71.9722 24.1612 71.9722 24.0576V22.9251C71.9722 22.8215 72.0241 22.7698 72.1277 22.7698H73.1836C73.2873 22.7698 73.3391 22.8215 73.3391 22.9251V24.0576C73.3391 24.1612 73.2873 24.213 73.1836 24.213H72.1277Z" fill="white"/>
<path d="M78.1222 14.7006C78.6507 14.7006 79.106 14.7699 79.4891 14.9104C79.8722 15.05 80.1906 15.2442 80.4442 15.4919C80.6977 15.7406 80.8865 16.0374 81.0115 16.3841C81.1355 16.7308 81.1975 17.1108 81.1975 17.525C81.1975 18.0529 81.0753 18.5438 80.8328 18.9996C80.5895 19.4554 80.2507 19.8326 79.8158 20.1322C79.8676 20.122 79.9453 20.1164 80.049 20.1164H82.208C82.4153 20.1164 82.5708 20.1525 82.6745 20.2255C82.7781 20.2977 82.8299 20.4428 82.8299 20.6601C82.8299 20.9189 82.7809 21.0946 82.6828 21.188C82.5847 21.2814 82.4264 21.3276 82.209 21.3276H80.1434C79.7704 21.3276 79.4188 21.3119 79.0875 21.2814C78.7562 21.2508 78.4406 21.1418 78.1398 20.9559C77.7983 21.1418 77.4328 21.2508 77.045 21.2814C76.6563 21.3128 76.3121 21.3276 76.0122 21.3276H74.1327C73.719 21.3276 73.5117 21.1205 73.5117 20.7072C73.5117 20.4484 73.5608 20.2856 73.6589 20.2181C73.757 20.1507 73.9152 20.1174 74.1327 20.1174H76.4157C75.991 19.8178 75.6569 19.4425 75.4135 18.9922C75.1701 18.542 75.0489 18.0529 75.0489 17.5259C75.0489 17.1127 75.1109 16.7317 75.2349 16.385C75.3589 16.0383 75.5477 15.7406 75.8022 15.4929C76.0557 15.2442 76.3741 15.0509 76.7572 14.9113C77.1404 14.7717 77.5957 14.7015 78.1241 14.7015L78.1222 14.7006ZM78.1222 15.9108C77.6253 15.9108 77.2162 16.0559 76.8951 16.3453C76.574 16.6347 76.4139 17.0544 76.4139 17.6027C76.4139 18.1509 76.5795 18.6298 76.9108 19.007C77.2422 19.3851 77.6456 19.6662 78.1222 19.853C78.5988 19.6671 79.0023 19.3851 79.3336 19.007C79.6649 18.6298 79.8306 18.1611 79.8306 17.6027C79.8306 17.0442 79.6696 16.6356 79.3494 16.3453C79.0282 16.0559 78.6192 15.9108 78.1222 15.9108ZM76.6462 13.4432C76.5425 13.4432 76.4907 13.3914 76.4907 13.2879V12.1553C76.4907 12.0518 76.5425 12 76.6462 12H77.7021C77.8057 12 77.8576 12.0518 77.8576 12.1553V13.2879C77.8576 13.3914 77.8057 13.4432 77.7021 13.4432H76.6462ZM78.5415 13.4432C78.4378 13.4432 78.386 13.3914 78.386 13.2879V12.1553C78.386 12.0518 78.4378 12 78.5415 12H79.5974C79.701 12 79.7529 12.0518 79.7529 12.1553V13.2879C79.7529 13.3914 79.701 13.4432 79.5974 13.4432H78.5415Z" fill="white"/>
<path d="M86.8989 21.4348C86.4121 21.4348 85.9827 21.3645 85.6098 21.2249C85.2368 21.0853 84.9213 20.8653 84.6621 20.5657C84.4447 20.8967 84.1652 21.1066 83.8237 21.1944C83.4822 21.2822 83.1657 21.3266 82.876 21.3266H82.2079C81.7942 21.3266 81.5869 21.1195 81.5869 20.7062C81.5869 20.4474 81.636 20.2847 81.7341 20.2172C81.8322 20.1497 81.9904 20.1164 82.2079 20.1164H82.9843C83.0982 20.1164 83.212 20.0933 83.3258 20.047C83.4396 20.0008 83.5433 19.9232 83.6368 19.8141C83.7302 19.705 83.8052 19.5607 83.8616 19.3795C83.9181 19.1983 83.9468 18.9737 83.9468 18.7046C83.9366 18.6011 83.931 18.5003 83.931 18.4023V18.0843C83.931 16.8944 84.1948 16.0337 84.7232 15.5002C85.2516 14.9677 85.9763 14.7014 86.898 14.7014C87.8197 14.7014 88.5443 14.9677 89.0728 15.5002C89.6012 16.0327 89.8649 16.8944 89.8649 18.0843C89.8649 18.6741 89.7946 19.1808 89.6549 19.6051C89.5151 20.0295 89.318 20.3762 89.0644 20.6443C88.8109 20.9133 88.4999 21.1121 88.1325 21.2415C87.7651 21.371 87.3533 21.4357 86.898 21.4357L86.8989 21.4348ZM86.8989 15.9098C86.3187 15.9098 85.8967 16.1012 85.6329 16.4839C85.3692 16.8667 85.2368 17.3992 85.2368 18.0824C85.2368 18.8276 85.3692 19.3703 85.6329 19.7114C85.8967 20.0526 86.3187 20.2236 86.8989 20.2236C87.4792 20.2236 87.9012 20.0526 88.1649 19.7114C88.4287 19.3703 88.561 18.8267 88.561 18.0824C88.561 17.4001 88.4287 16.8667 88.1649 16.4839C87.9012 16.1012 87.4792 15.9098 86.8989 15.9098Z" fill="white"/>
</g>
<defs>
<linearGradient id="paint0_linear_1103_6899" x1="105.061" y1="25.5738" x2="257.574" y2="25.5738" gradientUnits="userSpaceOnUse">
<stop stop-color="#FA6424"/>
<stop offset="1" stop-color="#CF3C3A"/>
</linearGradient>
<linearGradient id="paint1_linear_1103_6899" x1="105.061" y1="29.8921" x2="257.574" y2="29.8921" gradientUnits="userSpaceOnUse">
<stop stop-color="#FA6424"/>
<stop offset="1" stop-color="#CF3C3A"/>
</linearGradient>
<clipPath id="clip0_1103_6899">
<rect width="309.895" height="214.375" fill="white" transform="translate(-1.27539 -46.6753) rotate(-7.29573)"/>
</clipPath>
<clipPath id="clip1_1103_6899">
<rect width="56.4377" height="29.8272" fill="white" transform="translate(60 12)"/>
</clipPath>
</defs>
</svg>
