<svg width="301" height="49" viewBox="0 0 301 49" fill="none" xmlns="http://www.w3.org/2000/svg">
<rect width="300.208" height="48.3184" rx="9" fill="#F4F6F7"/>
<g clip-path="url(#clip0_1103_6896)">
<path d="M142.997 18.7983H140.678C140.546 18.7983 140.439 18.9054 140.439 19.0376V23.7722C140.44 26.2227 138.457 28.2101 136.009 28.2112C136.005 28.2112 136 28.2112 135.995 28.2112H132.756C132.693 28.2115 132.632 28.2363 132.588 28.2807C132.543 28.325 132.518 28.3855 132.519 28.4485V30.7665C132.518 30.8295 132.543 30.8901 132.588 30.9344C132.633 30.9785 132.693 31.0033 132.756 31.0039H135.997C137.051 31.0182 138.097 30.8271 139.078 30.4416V28.2331H141.905C142.748 27.0612 143.22 25.5537 143.22 23.7776V19.043C143.221 19.0119 143.216 18.9808 143.205 18.9516C143.194 18.9221 143.178 18.8954 143.156 18.8732C143.135 18.8502 143.11 18.8321 143.081 18.8202C143.055 18.8083 143.027 18.801 142.997 18.7983Z" fill="url(#paint0_radial_1103_6896)"/>
<path d="M142.997 18.4863H140.678C140.418 18.4882 140.208 18.6988 140.206 18.9591V23.6938C140.206 26.0123 138.329 27.8919 136.013 27.8919C136.009 27.8919 136.005 27.8919 136.002 27.8919H132.763C132.7 27.8908 132.638 27.9021 132.58 27.9248C132.522 27.9492 132.469 27.9846 132.424 28.0289C132.379 28.0724 132.344 28.1246 132.32 28.1822C132.294 28.2395 132.281 28.3019 132.281 28.3647V30.6864C132.281 30.8116 132.33 30.9316 132.418 31.0206C132.506 31.1079 132.625 31.1576 132.75 31.1592H135.991C137.045 31.1717 138.092 30.986 139.077 30.6116V30.1004C138.1 30.5097 137.05 30.7151 135.991 30.7046L132.746 30.6954V28.3628H135.995C138.571 28.3647 140.662 26.277 140.667 23.6976L140.678 18.9521H142.997V23.6976C142.997 25.5028 142.47 27.0504 141.539 28.2295H142.137C142.988 27.0158 143.466 25.466 143.467 23.6976V18.9502C143.465 18.8272 143.415 18.7096 143.327 18.6234C143.239 18.5363 143.121 18.4874 142.997 18.4866V18.4863Z" fill="#152B51"/>
<path d="M155.319 15.1807L156.993 14.4597C156.893 14.2559 156.816 14.0418 156.763 13.821C156.601 13.0416 157.093 12.3499 157.886 12.1782C158.604 12.0285 159.162 12.4064 159.292 13.0324C159.447 13.7626 159.029 14.2846 158.342 14.5876L155.583 15.7794C155.525 15.8043 155.459 15.8043 155.401 15.7794C155.343 15.7578 155.297 15.7138 155.272 15.6573L155.195 15.4894C155.182 15.4607 155.175 15.4297 155.175 15.398C155.173 15.3669 155.179 15.3358 155.19 15.3067C155.201 15.2783 155.218 15.252 155.239 15.2299C155.262 15.208 155.289 15.1912 155.319 15.1807H155.319ZM158.132 13.9742C158.433 13.8658 158.615 13.5607 158.57 13.2441C158.561 13.1787 158.537 13.1165 158.5 13.0616C158.466 13.0051 158.418 12.9576 158.362 12.923C158.306 12.8881 158.244 12.8651 158.179 12.8554C158.114 12.8475 158.047 12.8538 157.984 12.8738C157.898 12.8862 157.815 12.9173 157.742 12.9651C157.669 13.0127 157.607 13.0749 157.56 13.1476C157.464 13.2963 157.435 13.4785 157.48 13.6496C157.525 13.831 157.599 14.004 157.698 14.1624L158.132 13.9745V13.9742Z" fill="#176AB2"/>
<path d="M141.968 33.4875H141.652C141.636 33.4875 141.62 33.4927 141.607 33.5021C141.593 33.5108 141.582 33.5246 141.578 33.5405L140.936 35.1341L140.245 33.5351C140.239 33.5205 140.229 33.5084 140.216 33.5005C140.202 33.491 140.186 33.4859 140.17 33.4859H139.851C139.841 33.4832 139.83 33.4832 139.82 33.4859C139.81 33.4897 139.8 33.4951 139.793 33.5024C139.785 33.5102 139.779 33.5194 139.776 33.5297C139.773 33.5397 139.773 33.5508 139.776 33.5608V36.0596C139.776 36.0815 139.784 36.1026 139.8 36.118C139.815 36.134 139.836 36.1426 139.858 36.1418H140.121C140.142 36.1421 140.162 36.1334 140.177 36.118C140.193 36.1037 140.203 36.0832 140.203 36.0615V34.6269L140.671 35.722C140.677 35.7369 140.687 35.7493 140.7 35.7585C140.714 35.7674 140.73 35.7717 140.746 35.7712H141.07C141.087 35.7709 141.103 35.7658 141.116 35.7566C141.13 35.7474 141.14 35.7339 141.145 35.7182L141.596 34.5994V36.0596C141.595 36.104 141.63 36.1407 141.674 36.1418C141.675 36.1418 141.676 36.1418 141.678 36.1418H141.964C141.986 36.1421 142.007 36.1337 142.022 36.118C142.037 36.1029 142.045 36.0826 142.046 36.0615V33.5684C142.045 33.5473 142.037 33.5273 142.022 33.5119C142.008 33.497 141.988 33.4886 141.967 33.4881L141.968 33.4875Z" fill="#152B51"/>
<path d="M146.483 33.5041H146.184C146.173 33.5014 146.163 33.5014 146.153 33.5041C146.142 33.5081 146.133 33.5143 146.125 33.5224C146.118 33.5297 146.113 33.5384 146.109 33.5481C146.106 33.5589 146.106 33.5703 146.109 33.5811V34.9884C146.124 35.1682 146.105 35.349 146.052 35.5215C146.021 35.5917 145.964 35.6477 145.894 35.6785C145.718 35.7496 145.522 35.7496 145.347 35.6785C145.271 35.6501 145.207 35.5977 145.165 35.5288C145.113 35.3914 145.094 35.2441 145.108 35.0981V33.576C145.108 33.5543 145.099 33.5341 145.083 33.5195C145.068 33.5035 145.048 33.4949 145.026 33.4957H144.692C144.682 33.493 144.672 33.493 144.661 33.4957C144.651 33.4989 144.641 33.5051 144.634 33.5141C144.627 33.5214 144.621 33.53 144.618 33.5397C144.616 33.55 144.616 33.5606 144.618 33.5708V35.1479C144.601 35.3647 144.643 35.582 144.738 35.7775C144.824 35.911 144.953 36.0118 145.103 36.064C145.268 36.1237 145.443 36.1535 145.619 36.1516C145.797 36.157 145.973 36.1186 146.133 36.0402C146.268 35.9702 146.38 35.8623 146.455 35.7299C146.545 35.5231 146.583 35.2976 146.567 35.0727V33.5797C146.565 33.5362 146.528 33.5022 146.484 33.503L146.483 33.5049V33.5041Z" fill="#152B51"/>
<path d="M150.676 33.6466C150.435 33.5328 150.168 33.482 149.901 33.4987H149.218C149.174 33.4977 149.137 33.5328 149.136 33.5771C149.136 33.5785 149.136 33.5796 149.136 33.5809V36.0687C149.136 36.0906 149.144 36.1114 149.16 36.1271C149.175 36.1427 149.196 36.1519 149.218 36.1527H149.947C150.211 36.1673 150.474 36.1038 150.702 35.9703C150.872 35.8519 151.006 35.6873 151.087 35.4956C151.265 35.045 151.265 34.5427 151.087 34.0921C150.999 33.9048 150.856 33.7493 150.676 33.6466ZM150.709 34.8422C150.715 35.0155 150.686 35.188 150.624 35.3496C150.58 35.465 150.498 35.5621 150.392 35.6253C150.243 35.6929 150.08 35.7237 149.916 35.7148H149.626V33.9134H149.918C150.089 33.9012 150.261 33.9348 150.416 34.0102C150.521 34.0829 150.599 34.1889 150.638 34.3113C150.693 34.483 150.718 34.6625 150.715 34.8425H150.709V34.8422Z" fill="#152B51"/>
<path d="M155.051 33.5588C155.046 33.5431 155.036 33.5299 155.022 33.5204C155.009 33.5112 154.993 33.5055 154.976 33.5039H154.648C154.632 33.5042 154.616 33.5093 154.603 33.5185C154.589 33.5277 154.579 33.5412 154.574 33.5569L153.551 36.0428C153.548 36.056 153.548 36.0698 153.551 36.083C153.553 36.096 153.558 36.1084 153.565 36.1195C153.58 36.1428 153.605 36.1568 153.633 36.156H153.936C153.951 36.1558 153.967 36.1506 153.979 36.1414C153.993 36.1328 154.003 36.1201 154.009 36.1049L154.273 35.4697H155.252L155.489 36.103C155.495 36.1184 155.505 36.1317 155.518 36.1414C155.532 36.1506 155.549 36.1558 155.566 36.156H155.916C155.929 36.156 155.942 36.1531 155.954 36.1468C155.965 36.1398 155.975 36.1303 155.983 36.1195C155.991 36.1084 155.995 36.096 155.998 36.083C156.001 36.0698 156.001 36.056 155.998 36.0428L155.052 33.5585L155.051 33.5588ZM155.093 35.061H154.428L154.774 34.2121L155.093 35.061H155.093Z" fill="#152B51"/>
<path d="M160.357 34.1174C160.275 33.9298 160.137 33.7717 159.963 33.6646C159.721 33.5511 159.455 33.5008 159.188 33.5187H158.497C158.476 33.5178 158.455 33.5265 158.441 33.5424C158.424 33.5568 158.415 33.5773 158.415 33.5989V36.0886C158.416 36.1105 158.425 36.1313 158.441 36.147C158.456 36.1621 158.477 36.1708 158.499 36.1708H159.228C159.492 36.1851 159.755 36.1218 159.983 35.9883C160.154 35.8702 160.288 35.7055 160.369 35.5136C160.457 35.2968 160.502 35.0649 160.501 34.8311C160.505 34.5856 160.456 34.342 160.357 34.1174ZM159.915 34.331C159.972 34.5005 159.998 34.6783 159.994 34.8567C159.999 35.03 159.97 35.2025 159.908 35.3641C159.864 35.4796 159.783 35.5766 159.676 35.6399C159.527 35.708 159.364 35.738 159.201 35.7274H158.898V33.9276H159.19C159.361 33.9144 159.532 33.9479 159.686 34.0244C159.794 34.0955 159.874 34.202 159.912 34.3256L159.915 34.331H159.915Z" fill="#152B51"/>
<path d="M165.656 18.8437C164.276 17.6354 162.621 17.2175 160.805 17.4183C159.392 17.5594 158.067 18.1736 157.046 19.1613C154.828 21.3498 154.214 24.6934 155.511 27.528C155.545 27.6178 155.61 27.6932 155.693 27.7416C155.774 27.7905 155.87 27.8111 155.964 27.8H159.118C159.186 27.8054 159.253 27.8054 159.321 27.8C159.362 27.7983 159.402 27.7856 159.437 27.7635C159.472 27.7402 159.5 27.7081 159.517 27.6705C159.552 27.5932 159.541 27.5032 159.488 27.4369C159.428 27.3618 159.361 27.2915 159.29 27.2272C157.732 25.6317 157.762 23.0745 159.355 21.5153C159.375 21.4958 159.395 21.4766 159.415 21.4577C160.691 20.244 162.724 20.4629 163.767 21.4577C164.559 22.1927 164.991 23.2372 164.95 24.3177C164.914 26.0004 163.588 28.1506 160.992 28.1617H155.069C154.557 28.1617 154.043 28.1854 153.536 28.1398C151.941 27.9973 150.452 26.6649 150.154 25.0897C150.045 24.4934 149.99 23.8887 149.988 23.2826C149.988 21.9667 150.003 20.6508 150.029 19.3438C150.038 18.871 149.905 18.6229 149.325 18.652C148.835 18.6739 148.343 18.652 147.848 18.652H147.185C146.949 18.6437 146.749 18.8251 146.734 19.0608C146.73 19.1216 146.73 19.1824 146.734 19.2432C146.734 20.5208 146.747 21.7986 146.734 23.0761C146.743 23.5884 146.726 24.1006 146.683 24.611C146.561 25.9626 145.741 27.1515 144.521 27.7448C144.007 27.983 143.447 28.1076 142.88 28.1098H139.152C139.091 28.1098 139.032 28.1333 138.988 28.1754C138.945 28.2187 138.919 28.2765 138.917 28.3379V31.1306C138.917 31.259 139.02 31.3633 139.149 31.3642H142.873C143.375 31.3544 143.875 31.3063 144.37 31.2201L144.455 31.2055L144.53 31.1944C144.974 31.1025 145.403 30.9516 145.806 30.7454C146.209 30.5559 146.593 30.3291 146.955 30.0682C147.386 29.753 147.784 29.3941 148.142 28.997L148.386 28.7342C148.421 28.7926 148.459 28.8475 148.499 28.9021C148.962 29.4222 149.492 29.8777 150.076 30.2564C151.075 30.9224 152.162 31.366 153.371 31.3787C155.947 31.4061 158.522 31.4225 161.097 31.3915C163.014 31.3988 164.849 30.6048 166.158 29.2013C167.323 28.0203 168.033 26.4646 168.163 24.81C168.364 22.3933 167.445 20.4075 165.656 18.8434L165.656 18.8437ZM167.745 24.5421C167.709 25.2865 167.536 26.0177 167.235 26.6995C166.783 27.8159 166.051 28.7964 165.109 29.5449C163.987 30.4351 162.599 30.92 161.167 30.9211C158.717 30.9411 156.265 30.9211 153.815 30.9211C152.66 30.9357 151.527 30.6086 150.557 29.9812C149.818 29.5406 149.161 28.9734 148.617 28.3057C148.435 28.0684 148.304 28.0757 148.116 28.3184C147.603 28.9861 146.973 29.5546 146.256 29.9958C145.991 30.1588 145.715 30.3023 145.429 30.4248C144.618 30.7524 143.751 30.9149 142.877 30.903H139.378V28.565H142.869C143.431 28.565 143.988 28.4593 144.51 28.2528C145.85 27.6656 146.817 26.4565 147.095 25.0184C147.149 24.724 147.176 24.4253 147.175 24.1258C147.175 22.5468 147.175 20.9792 147.188 19.4038C147.188 19.3089 147.188 19.2213 147.203 19.1008H149.56V24.0855C149.559 24.4526 149.589 24.8189 149.651 25.1806C149.833 26.168 150.395 26.9274 151.139 27.5643C151.914 28.2506 152.917 28.6231 153.952 28.6082C156.285 28.5898 158.62 28.599 160.956 28.6082C162.769 28.6499 164.412 27.547 165.063 25.852C165.719 24.2093 165.428 22.6944 164.31 21.3601C162.908 19.6628 160.174 19.732 158.744 21.4569C157.514 22.9207 157.331 24.9986 158.286 26.6552C158.418 26.8706 158.549 27.0823 158.695 27.3377C157.759 27.3615 156.855 27.3377 155.936 27.3377C155.851 27.1169 155.754 26.9071 155.683 26.6898C154.799 24.1509 155.513 21.2141 157.448 19.42C158.405 18.5469 159.621 18.0103 160.911 17.8924C161.67 17.8049 162.438 17.8576 163.178 18.0476C164.159 18.2882 165.052 18.8021 165.754 19.5298C167.097 20.9317 167.817 22.5871 167.759 24.551L167.744 24.5418L167.745 24.5421Z" fill="#152B51"/>
<path d="M157.622 29.5049H161.644C162.931 29.5376 164.159 28.9624 164.958 27.9517C165.923 26.769 166.426 25.4109 166.324 23.8742C166.192 21.8665 164.849 19.9372 162.811 19.3768C162.473 19.3019 162.13 19.2471 161.786 19.2125C161.73 19.2125 161.669 19.2125 161.604 19.2033C161.482 19.1954 161.389 19.0916 161.394 18.9697C161.394 18.9403 161.4 18.9113 161.411 18.884C161.422 18.857 161.439 18.8329 161.46 18.8129C161.48 18.7927 161.505 18.7778 161.533 18.7691C161.56 18.7586 161.589 18.7543 161.618 18.7564C161.849 18.7502 162.08 18.7627 162.309 18.7929C164.048 19.0649 165.288 20.0378 166.12 21.5545C166.583 22.3563 166.822 23.2689 166.81 24.1956C166.759 26.01 166.127 27.5924 164.76 28.8243C163.925 29.5798 162.84 29.9958 161.715 29.9907C159.48 30.0091 157.259 29.9907 155.03 29.9907C154.483 29.9907 153.936 29.9907 153.389 29.9761C152.671 29.9561 151.972 29.7485 151.36 29.3738C149.652 28.3572 148.638 26.8734 148.352 24.9003C148.315 24.5451 148.303 24.1877 148.315 23.8306V20.0269C148.332 19.8683 148.414 19.7642 148.532 19.7642C148.669 19.7747 148.774 19.8896 148.773 20.0269V20.2589C148.773 21.5748 148.731 22.9053 148.784 24.2269C148.871 26.4719 149.947 28.1201 151.95 29.1422C152.46 29.3944 153.023 29.5195 153.591 29.5071C154.938 29.5017 156.278 29.5052 157.622 29.5052L157.622 29.5049Z" fill="#152B51"/>
<path d="M157.006 25.3656C157.006 25.4969 156.964 25.5826 156.84 25.6121C156.812 25.621 156.783 25.6248 156.753 25.6232C156.724 25.6197 156.696 25.6102 156.671 25.5959C156.645 25.5815 156.623 25.5615 156.605 25.5375C156.589 25.514 156.577 25.4872 156.571 25.4591C156.512 25.1866 156.469 24.9111 156.439 24.6341C156.439 24.5792 156.458 24.5259 156.494 24.4843C156.569 24.3983 156.696 24.3827 156.79 24.4478C156.834 24.4792 156.866 24.5259 156.879 24.5792C156.925 24.8419 156.963 25.1085 157.007 25.3658L157.006 25.3656Z" fill="#152B51"/>
<path d="M157.033 25.9055C157.059 25.9201 157.132 25.9328 157.152 25.9731C157.226 26.1147 157.281 26.2658 157.316 26.4221C157.325 26.4805 157.225 26.5899 157.154 26.621C157.115 26.631 157.074 26.631 157.035 26.621C156.996 26.6097 156.961 26.5891 156.933 26.5607C156.857 26.4296 156.803 26.2864 156.775 26.1374C156.751 25.9987 156.869 25.9001 157.033 25.9055H157.033Z" fill="#152B51"/>
<path d="M160.613 19.0011C160.607 18.9724 160.595 18.9451 160.579 18.9208C160.562 18.8984 160.541 18.8792 160.517 18.8643C160.492 18.8484 160.464 18.8384 160.435 18.8351C160.406 18.8297 160.377 18.8297 160.349 18.8351C160.122 18.8786 159.899 18.9397 159.682 19.0176C158.041 19.6674 157.055 20.892 156.583 22.5585C156.55 22.668 156.523 22.7794 156.497 22.8926H156.512C156.47 23.1008 156.439 23.3105 156.417 23.5206V23.6082C156.401 23.8709 156.452 23.9731 156.599 24.0023C156.747 24.0315 156.853 23.9147 156.869 23.6374C156.894 23.2348 156.971 22.8372 157.099 22.4547C157.46 21.2793 158.263 20.2911 159.339 19.6985C159.652 19.5501 159.973 19.4214 160.302 19.3133C160.355 19.2914 160.417 19.2876 160.468 19.2657C160.496 19.2565 160.523 19.2422 160.546 19.2238C160.569 19.2041 160.588 19.1808 160.602 19.1544C160.616 19.1279 160.624 19.0995 160.628 19.0703C160.626 19.0468 160.621 19.0233 160.613 19.0008V19.0011Z" fill="#152B51"/>
</g>
<mask id="mask0_1103_6896" style="mask-type:alpha" maskUnits="userSpaceOnUse" x="0" y="0" width="301" height="49">
<rect x="0.791992" width="300.208" height="48.3184" rx="9" fill="#F4F6F7"/>
</mask>
<g mask="url(#mask0_1103_6896)">
<path d="M193.881 -27.6574C178.928 -38.8625 160.992 -42.7379 141.317 -40.8754C126.005 -39.5669 111.655 -33.8716 100.584 -24.712C76.5537 -4.41744 69.9068 26.5884 83.9525 52.874C84.3299 53.7063 85.0262 54.4057 85.9273 54.8544C86.8108 55.3081 87.8464 55.4986 88.8704 55.3958H123.044C123.773 55.446 124.507 55.446 125.235 55.3958C125.683 55.3808 126.119 55.263 126.499 55.0574C126.874 54.8418 127.175 54.5435 127.368 54.1951C127.743 53.4782 127.623 52.6434 127.052 52.0293C126.397 51.3324 125.677 50.6806 124.899 50.084C108.024 35.2893 108.343 11.5755 125.61 -2.88332C125.823 -3.0638 126.043 -3.24178 126.262 -3.41725C140.088 -14.6725 162.115 -12.642 173.414 -3.41725C181.994 3.39857 186.675 13.0846 186.234 23.104C185.839 38.7085 171.477 58.6471 143.348 58.7498H79.1692C73.6193 58.7498 68.049 58.9704 62.5577 58.5468C45.2734 57.2257 29.1359 44.87 25.9149 30.2633C24.7359 24.7334 24.1361 19.1258 24.1186 13.5057C24.1186 1.30294 24.2766 -10.8999 24.5545 -23.0199C24.654 -27.4042 23.2116 -29.7054 16.9304 -29.4347C11.6176 -29.2316 6.28425 -29.4347 0.930443 -29.4347H-6.26063C-8.81759 -29.5124 -10.9796 -27.8304 -11.1405 -25.6445C-11.1844 -25.0805 -11.1844 -24.5165 -11.1405 -23.9524C-11.1405 -12.1056 -11.003 -0.256256 -11.1405 11.5906C-11.0469 16.3409 -11.2341 21.0911 -11.6934 25.8238C-13.0246 38.3575 -21.9095 49.3822 -35.1214 54.8844C-40.6947 57.0929 -46.7594 58.2485 -52.9002 58.2685H-93.2966C-93.9577 58.2685 -94.5955 58.4866 -95.0753 58.8777C-95.5463 59.2788 -95.8213 59.8152 -95.8447 60.3842V86.2813C-95.8447 87.472 -94.7242 88.4396 -93.3346 88.4472H-52.9792C-47.5405 88.3569 -42.1194 87.9107 -36.7627 87.1111L-35.8353 86.9757L-35.0249 86.8729C-30.2182 86.0206 -25.5694 84.6219 -21.1986 82.7092C-16.8337 80.952 -12.6676 78.8489 -8.75321 76.4299C-4.07814 73.507 0.231224 70.1781 4.10762 66.4957L6.75526 64.0591C7.12974 64.6006 7.54517 65.1094 7.98108 65.6158C12.9926 70.4388 18.7414 74.6626 25.0694 78.1745C35.894 84.3511 47.6665 88.4647 60.7644 88.5825C88.6773 88.8357 116.587 88.9886 144.48 88.7003C165.26 88.768 185.134 81.4057 199.317 68.3907C211.941 57.4388 219.638 43.0125 221.045 27.6688C223.219 5.25856 213.263 -13.1559 193.884 -27.6599L193.881 -27.6574ZM216.519 25.1846C216.124 32.0882 214.249 38.8689 210.987 45.1909C206.098 55.5437 198.164 64.6356 187.954 71.5768C175.801 79.8315 160.755 84.3286 145.246 84.3386C118.697 84.5241 92.1295 84.3386 65.5798 84.3386C53.0672 84.474 40.7885 81.4408 30.2798 75.6227C22.2667 71.5367 15.1517 66.2776 9.26248 60.0859C7.28772 57.885 5.86588 57.9527 3.82968 60.2037C-1.72599 66.3954 -8.55428 71.6671 -16.3188 75.7581C-19.1917 77.2696 -22.1875 78.6007 -25.2856 79.7362C-34.0682 82.7744 -43.471 84.281 -52.9411 84.1707H-90.8478V62.4899H-53.0201C-46.9349 62.4899 -40.9024 61.5098 -35.2414 59.5946C-20.7188 54.15 -10.2453 42.9373 -7.23193 29.6015C-6.64681 26.8717 -6.35424 24.1017 -6.36302 21.3242C-6.36302 6.6824 -6.36303 -7.85418 -6.22552 -22.4634C-6.22552 -23.3433 -6.22552 -24.1555 -6.06754 -25.2735H19.4728V20.9507C19.464 24.3549 19.7946 27.7515 20.4616 31.1055C22.4364 40.2626 28.5216 47.3041 36.5815 53.2099C44.9809 59.5746 55.8494 63.0288 67.0602 62.891C92.346 62.7205 117.649 62.8057 142.953 62.891C162.598 63.277 180.406 53.0495 187.456 37.3323C194.569 22.0988 191.406 8.05107 179.297 -4.32218C164.107 -20.062 134.477 -19.4203 118.989 -3.42477C105.663 10.1492 103.68 29.4185 114.03 44.7798C115.452 46.7777 116.874 48.7404 118.454 51.1093C108.32 51.3299 98.5219 51.1093 88.5661 51.1093C87.6387 49.0613 86.5913 47.1161 85.819 45.1006C76.2377 21.5574 83.9817 -5.67583 104.941 -22.313C115.318 -30.4098 128.494 -35.3857 142.473 -36.4786C150.691 -37.2908 159.014 -36.802 167.027 -35.0397C177.659 -32.8087 187.337 -28.0434 194.94 -21.2953C209.498 -8.29536 217.3 7.0559 216.668 25.2673L216.51 25.1821L216.519 25.1846Z" fill="#152B51"/>
<path d="M106.827 71.2059H150.404C164.353 71.5092 177.656 66.1749 186.315 56.8022C196.765 45.8352 202.216 33.2414 201.11 18.9906C199.688 0.373022 185.13 -17.5176 163.045 -22.714C159.382 -23.4084 155.676 -23.9173 151.943 -24.2381C151.331 -24.2381 150.679 -24.2381 149.968 -24.3234C148.648 -24.3961 147.639 -25.3586 147.698 -26.4892C147.698 -26.7624 147.759 -27.0306 147.876 -27.2838C147.999 -27.5345 148.18 -27.7576 148.409 -27.9431C148.631 -28.1311 148.903 -28.269 149.198 -28.3492C149.494 -28.4469 149.81 -28.4871 150.126 -28.467C152.627 -28.5247 155.132 -28.4093 157.612 -28.1286C176.456 -25.6068 189.89 -16.5851 198.898 -2.51975C203.924 4.91523 206.511 13.378 206.385 21.9711C205.832 38.7963 198.977 53.4707 184.162 64.8939C175.125 71.9003 163.358 75.7582 151.173 75.7105C126.955 75.881 102.895 75.7105 78.7359 75.7105C72.8087 75.7105 66.8844 75.7105 60.9572 75.5751C53.1839 75.3897 45.6038 73.4645 38.9715 69.9902C20.4613 60.5623 9.47872 46.8028 6.37761 28.5061C5.97973 25.2123 5.84809 21.8984 5.98266 18.587V-16.6853C6.16112 -18.1568 7.05049 -19.1219 8.33189 -19.1219C9.81516 -19.0241 10.9532 -17.9588 10.9386 -16.6853V-14.5345C10.9386 -2.33175 10.4851 10.0064 11.0585 22.2619C12.0064 43.0803 23.6619 58.3639 45.3697 67.8419C50.8903 70.1807 56.9901 71.3413 63.1484 71.226C77.7471 71.1758 92.2638 71.2084 106.824 71.2084L106.827 71.2059Z" fill="#152B51"/>
<path d="M100.152 32.8178C100.152 34.0361 99.6982 34.8307 98.3554 35.1039C98.0482 35.1867 97.7293 35.2218 97.4075 35.2067C97.0944 35.1741 96.7931 35.0864 96.5181 34.9535C96.2372 34.8207 95.9944 34.6352 95.8072 34.4121C95.6258 34.194 95.5 33.9458 95.4327 33.6851C94.8008 31.1583 94.3268 28.604 94.0109 26.0346C94.005 25.5257 94.2157 25.0319 94.6048 24.6458C95.4122 23.8487 96.7931 23.7033 97.8053 24.3074C98.291 24.5982 98.6362 25.0319 98.7737 25.5257C99.2681 27.9622 99.6836 30.4339 100.158 32.8203L100.152 32.8178Z" fill="#152B51"/>
<path d="M100.447 37.8286C100.725 37.964 101.515 38.0818 101.731 38.4553C102.539 39.7688 103.136 41.1701 103.51 42.619C103.609 43.1605 102.521 44.1757 101.752 44.464C101.33 44.5567 100.889 44.5567 100.467 44.464C100.049 44.3587 99.6687 44.1682 99.3615 43.905C98.5365 42.6892 97.9543 41.3606 97.6442 39.9794C97.3868 38.6934 98.6711 37.7785 100.45 37.8286H100.447Z" fill="#152B51"/>
<path d="M139.244 -26.2011C139.17 -26.4668 139.045 -26.72 138.869 -26.9456C138.685 -27.1537 138.457 -27.3316 138.196 -27.4695C137.927 -27.6174 137.623 -27.7102 137.307 -27.7402C137 -27.7904 136.684 -27.7904 136.379 -27.7402C133.922 -27.3366 131.505 -26.7701 129.15 -26.0482C111.372 -20.022 100.685 -8.66646 95.5706 6.78757C95.2137 7.8028 94.9182 8.83558 94.6432 9.8859H94.8012C94.3477 11.8161 94.0113 13.7613 93.7743 15.7091V16.5212C93.5958 18.9578 94.1488 19.9053 95.7491 20.1761C97.3493 20.4468 98.4962 19.3639 98.6717 16.792C98.9438 13.0594 99.7805 9.37201 101.161 5.82498C105.07 -5.07432 113.776 -14.2389 125.438 -19.7337C128.823 -21.1099 132.307 -22.3031 135.868 -23.3058C136.441 -23.5089 137.111 -23.544 137.664 -23.747C137.971 -23.8322 138.261 -23.9651 138.512 -24.1355C138.758 -24.3185 138.966 -24.5341 139.124 -24.7798C139.267 -25.0254 139.361 -25.2886 139.402 -25.5594C139.381 -25.7775 139.328 -25.9955 139.244 -26.2036V-26.2011Z" fill="#152B51"/>
<path d="M313.132 -28.0781H288.004C286.573 -28.0781 285.415 -27.0855 285.415 -25.8597V18.0458C285.426 40.7694 263.935 59.199 237.415 59.209C237.362 59.209 237.309 59.209 237.257 59.209H202.159C201.477 59.2115 200.824 59.4421 200.342 59.8532C199.859 60.2643 199.587 60.8258 199.59 61.4099V82.9052C199.587 83.4893 199.856 84.0508 200.342 84.4619C200.827 84.8705 201.48 85.1011 202.159 85.1061H237.28C248.696 85.239 260.035 83.4667 270.664 79.8921V59.412H301.3C310.425 48.5453 315.542 34.5653 315.542 18.096V-25.8095C315.56 -26.0978 315.504 -26.3861 315.384 -26.6568C315.267 -26.93 315.086 -27.1782 314.852 -27.3838C314.626 -27.5968 314.351 -27.7648 314.041 -27.8751C313.755 -27.9854 313.447 -28.0531 313.132 -28.0781Z" fill="url(#paint1_radial_1103_6896)"/>
<path d="M313.132 -30.9736H288.004C285.187 -30.9561 282.911 -29.0033 282.887 -26.5893V17.3162C282.887 38.8165 262.546 56.2458 237.453 56.2458C237.412 56.2458 237.374 56.2458 237.333 56.2458H202.238C201.562 56.2358 200.892 56.341 200.263 56.5516C199.631 56.7772 199.055 57.1056 198.563 57.5167C198.081 57.9203 197.697 58.4041 197.437 58.938C197.159 59.4695 197.019 60.0485 197.022 60.6301V82.1605C197.022 83.3211 197.551 84.4341 198.502 85.2588C199.461 86.0685 200.749 86.5297 202.097 86.5447H237.219C248.64 86.66 259.983 84.9379 270.661 81.4661V76.7259C260.074 80.521 248.693 82.4262 237.219 82.3284L202.056 82.2432V60.6125H237.257C265.173 60.6301 287.831 41.2705 287.884 17.3513L288.004 -26.6545H313.132V17.3513C313.132 34.0912 307.424 48.4423 297.328 59.3767H303.808C313.032 48.1215 318.208 33.7503 318.228 17.3513V-26.6721C318.205 -27.8126 317.658 -28.9031 316.707 -29.7027C315.753 -30.5099 314.472 -30.9636 313.132 -30.9711V-30.9736Z" fill="#152B51"/>
</g>
<defs>
<radialGradient id="paint0_radial_1103_6896" cx="0" cy="0" r="1" gradientUnits="userSpaceOnUse" gradientTransform="translate(133.426 20.6014) rotate(0.0800942) scale(12.5663 12.5811)">
<stop stop-color="#49408E"/>
<stop offset="0.13" stop-color="#3F519C"/>
<stop offset="0.38" stop-color="#267EC2"/>
<stop offset="0.51" stop-color="#2196D4"/>
<stop offset="0.6" stop-color="#238ECE"/>
<stop offset="0.75" stop-color="#2A77BD"/>
<stop offset="0.94" stop-color="#424F9B"/>
<stop offset="1" stop-color="#49408E"/>
</radialGradient>
<radialGradient id="paint1_radial_1103_6896" cx="0" cy="0" r="1" gradientUnits="userSpaceOnUse" gradientTransform="translate(209.418 -11.3578) rotate(0.0685468) scale(136.16 116.667)">
<stop stop-color="#49408E"/>
<stop offset="0.13" stop-color="#3F519C"/>
<stop offset="0.38" stop-color="#267EC2"/>
<stop offset="0.51" stop-color="#2196D4"/>
<stop offset="0.6" stop-color="#238ECE"/>
<stop offset="0.75" stop-color="#2A77BD"/>
<stop offset="0.94" stop-color="#424F9B"/>
<stop offset="1" stop-color="#49408E"/>
</radialGradient>
<clipPath id="clip0_1103_6896">
<rect x="132.281" y="12.1455" width="35.9088" height="24.0272" rx="9" fill="white"/>
</clipPath>
</defs>
</svg>
